<mxfile host="app.diagrams.net" agent="Mozilla/5.0 (Windows NT 10.0; Win64; x64) AppleWebKit/537.36 (KHTML, like Gecko) Chrome/141.0.0.0 Safari/537.36" version="28.2.7">
  <diagram name="Page-1" id="F0YbInMiT5KCL9h3Pj5O">
    <mxGraphModel dx="683" dy="432" grid="0" gridSize="10" guides="1" tooltips="1" connect="1" arrows="1" fold="1" page="1" pageScale="1" pageWidth="827" pageHeight="1169" math="0" shadow="0">
      <root>
        <mxCell id="0" />
        <mxCell id="1" parent="0" />
        <mxCell id="enXNgLlltsmvFPIuJAf--1" value="" style="image;aspect=fixed;perimeter=ellipsePerimeter;html=1;align=center;shadow=0;dashed=0;spacingTop=3;image=img/lib/active_directory/mainframe.svg;" vertex="1" parent="1">
          <mxGeometry x="370" y="90" width="105.26" height="100" as="geometry" />
        </mxCell>
        <mxCell id="enXNgLlltsmvFPIuJAf--2" value="" style="image;aspect=fixed;perimeter=ellipsePerimeter;html=1;align=center;shadow=0;dashed=0;spacingTop=3;image=img/lib/active_directory/server_farm.svg;" vertex="1" parent="1">
          <mxGeometry x="350" y="60" width="50" height="50" as="geometry" />
        </mxCell>
        <mxCell id="enXNgLlltsmvFPIuJAf--5" value="" style="shape=image;verticalLabelPosition=bottom;labelBackgroundColor=default;verticalAlign=top;aspect=fixed;imageAspect=0;image=data:image/png,iVBORw0KGgoAAAANSUhEUgAAAmQAAAG2CAIAAABebQ1SAAAQAElEQVR4AezdB7xdVZn//4T0noAUBRVUVHRARFAElRYI2H4iMi9RQcQCNnBUXirYC9hQEBVhBAQLfxEFAYkIAoKCgCBFaYNSBKQnIb2Q/N9kjWdiss8l9+bee84+53tfz6x59tqrPOuz9lrfvfbRuNay/IVACIRACIRACPRIYK0h+QuBEAiBEAiBEOiRQMSyRzxtcjNhhEAIhEAItJRAxLKl+NN5CIRACIRAHQhELOswS4mxDgQSYwiEQAcTiFh28ORmaCEQAiEQAv1DIGLZPxzTSgiEQB0IJMYQ6COBiGUfwaVaCIRACIRA9xCIWHbPXGekIRACIVAHAm0ZY8SyLaclQYVACIRACLQTgYhlO81GYgmBEAiBEGhLAhHLlaYllyEQAiEQAiGwMoGI5cpEch0CIRACIRACKxGIWK4EJJd1IJAYQyAEQmBwCUQsB5d3eguBEAiBEKghgYhlDSctIYdAHQgkxhDoJAIRy06azYwlBEIgBEJgQAhELAcEaxoNgRAIgToQSIyrSyBiubqkUi4EQiAEQqBrCUQsu3bqM/AQCIEQCIHVJdBKsVzdGFMuBEIgBEIgBFpKIGLZUvzpPARCIARCoA4EIpZ1mKVWxpi+QyAEQiAEhkQs8xCEQAiEQAiEwJMQiFg+CaDcDoEaEEiIIRACA0wgYjnAgNN8CIRACIRA/QlELOs/hxlBCIRAHQgkxloTiFjWevoSfAiEQAiEwGAQiFgOBuX0EQIhEAIhUAcCTWOMWDZFkxshEAIhEAIhUAhELAuHpCEQAiEQAiHQlEDEsimawb+RHkMgBEIgBNqTQMSyPeclUYVACIRACLQRgYhlG01GQqkDgcQYAiHQjQQilt046xlzCIRACIRArwhELHuFK4VDIATqQCAxhkB/E4hY9jfRtBcCIRACIdBxBCKWHTelGVAIhEAI1IFAvWKMWNZrvhJtCIRACIRACwhELFsAPV2GQAiEQAjUi0C3imW9ZinRhkAIhEAItJRAxLKl+NN5CIRACIRAHQhELOswS90aY8YdAiEQAm1CIGLZJhORMEIgBEIgBNqXQMSyfecmkYVAHQgkxhDoCgIRy66Y5gwyBEIgBEJgTQhELNeEXuqGQAiEQB0IJMY1JhCxXGOEaSAEQiAEQqDTCUQsO32GM74QCIEQCIE1JjAIYrnGMaaBEAiBEAiBEGgpgYhlS/Gn8xAIgRAIgToQiFjWYZYGIcZ0EQIhEAIh0JxAxLI5m9wJgRAIgRAIgeUEIpbLMSQJgToQSIwhEAKtIhCxbBX59BsCIRACIVAbAhHL2kxVAg2BEKgDgcTYmQQilp05rxlVCIRACIRAPxKIWPYjzDQVAiEQAiFQBwK9jzFi2XtmqRECIRACIdBlBCKWXTbhGW4IhEAIhEDvCUQse89sTWukfgiEQAiEQM0IRCxrNmEJNwRCIARCYPAJRCwHn3l6rAOBxBgCIRACKxCIWK4AI24IhEAIhEAIVBGIWFZRSV4IhEAdCCTGEBg0AhHLQUOdjkIgBEIgBOpKIGJZ15lL3CEQAiFQBwIdEmPEskMmMsMIgRAIgRAYOAIRy4Fjm5ZDIARCIAQ6hECHi2WHzFKGEQIhEAIh0FICEcuW4k/nIRACIRACdSAQsazDLHV4jBleCIRACLQ7gYhlu89Q4guBEAiBEGg5gYhly6cgAYRAHQgkxhDobgIRy+6e/4w+BEIgBEJgNQhELFcDUoqEQAiEQB0IJMaBIxCxHDi2aTkEQiAEQqBDCEQsO2QiM4wQCIEQCIGBI9B/YjlwMablEAiBEAiBEGgpgYhlS/Gn8xAIgRAIgToQiFjWYZb6L8a0FAIhEAIh0AcCEcs+QEuVEAiBEAiB7iIQseyu+c5o60AgMYZACLQdgYhl201JAgqBEAiBEGg3AhHLdpuRxBMCIVAHAomxywhELLtswjPcEAiBEAiB3hOIWPaeWWqEQAiEQAjUgUA/xhix7EeYaSoEQiAEQqAzCUQsO3NeM6oQCIEQCIF+JBCx7EeY/95UrkIgBEIgBDqFQMSyU2Yy4wiBEAiBEBgwAhHLAUObhutAIDGGQAiEwOoQiFiuDqWUCYEQCIEQ6GoCEcuunv4MPgTqQCAxhkDrCUQsWz8HiSAEQiAEQqDNCUQs23yCEl4IhEAI1IFAp8cYsazfDD++/E/cy5Ytmzdv3sKFC/kNW7JkyaJFixqXcUIgBAaawOLFixcsWGDdWZqlL2uTz8rl0uV/xU9aUwIRy5pNnEW4fN0tFffQoUPHjh07atQoOSTTLZnDhw8fOXIkh2o+9thjUmbRlrvyYyEQAv1FwMrS1IgRI0aPHm3dDRs2zKW1Zm3yWbm0QtdaK5stGDW2zpi/Gk9Ab0O3Dq1MRh1poZOlt1pLkUZan6U1t6xhORMnTpQytRQr5v13/vz5pWTSEAiBNSRgcTGvpA6XjGMlWoOl2eJYgy4feOABaaymBCKWNZs4umhlCtqBkhY6WRJOS9E7rPzZs2dbnG65VPKhhx6yPu+4446bb775xhtvvP7666+77ro//elPV1111e/yFwIhsMYELr/88r/85S9WmTdRK9H50mIsy3POnDneZS1G2mlhekldf/313YrVlEDEsmYTZyl6dfUC24ibOrpkciZMmKDALbfc8v3vf3+//fbbY489Nt100+c+97lbbLHF1ltvvc0227zsZS/bfvvtd9xxx10H/y89hkDHEdhpp50srqc+9anrrLPO5ptv/o53vOPkk0++8sorSeP48eO9y/qKY4VamD7S+t5jkcZqSiBiWb+J8wLrddXCsw7nzp1rEXqfZU6Qxx9//J577vnyl7/83e9+949//ONbb73VC68TZxmkX03UVV4qPxYCIbCGBCxDi8vZ0WL0/ebUU099//vfP23aNG8Fp512msbHjBlDLH3mUcxrrjRWUwIRy5pNnN8pRWxxMgI5btw4zsMPP3zYYYftv//+733ve88555yZM2d6pZXvQ5CFWtazWlasF15mDbsbC4FVCSSnVwT83uEd1OIqZolRzVmzZl166aVvectbNt5442OPPVYBZhlKS7GkdSQQsazZrPmdUsTWpO+uVrVTo9Pk1ltv/dWvfvWyyy5z6S7zY4mUZJYcq5Qpzzg+1cqPhUAIrCEBEmgxasTKIpzMuivmXfa+++47+OCDX/GKV/g26yOQLzrlVtI6EohYtu+sOQKW4DhWo2XJ5JBJgkcI7777bp9bP/CBD9xzzz1WrOW6oinpJbfkqM7kMI52Sn7SEAiBfiFgZVmDrLTmk491yrdOr7/++gMOOOCjH/3oP/7xD8Ua1vgq23Aat57Myf0WEIhYtgD6anbpx0UlKaXXVatOynxZ9cYq/4Ybbth7771PPPFExYifnFgIhECbEHCOFIkX04YQ/uQnP9lrr718/pHvLVa+Dzy33367S6tbGmtzAhHLNp0gr6gio4KMRvKLjR8/3i+UV1111T777COV6Yurt1dOLARCoE0IeIX10ZUc0ku+JUw+r7766sMPP/yss86yut2aOXPmc57zHAETTmmszQn0WizbfDwdE15ZPxZVOUc6X7IyOm+jU6dOvemmm1xOnjzZmvTBhx8LgRBoEwJWq9dcq3jx4sX8spDHjBnjZOmnk5tvvtkti5eUClhJaazNCUQs23SC/CopMiuqfKKx3ryfyrniiive/va3l0wHyvI9x1J0KxYCIdA+BMqqLEuVKHqjLTm+DO2555633norjVy4cKF8C7l9wk4kzQhELJuRaXG+rzQisJykbNSoUdJ77rnnwAMPtLoee+yx9dZbzwfYhQsXWodu/bvlKgRCoJUEGvrnNDlu+X+/SzRWa/lPs1vI++233yOPPOK7UXktdjfW5gQilm09QWUheSGlnV5IjzrqqBtvvPHuu++2FB988MF11lnHN1gDmDRpkjQWAiHQJgQar7neaP1a2Xij9ZrrrOnd99prr/3kJz8pWgWksfYnELFs0znyAVZkNFLqGyy99CPl0UcfXdTRArPevJkuXryYcM6aNUuxWM0IJNzOJeAQ6U23rFaj5DOOHMJJL/m//OUvjzvuOL9cNpRVZqxtCUQs23RqyKQX0vI7pW819HLfffd1SUStNCZHyvxsKW3TYbRNWHYou5WUcYYNG8ZhkEqLCZbjrk9n/EpTwNQwDrP3MY7C0hXNpOhFfqW5VQrry/wWXzCNluVowaWUv6KVBuWzRr6wG5cab/gKuKUdTsO00PA5yjNVlDQcvsyVTBV3Gafc4qtS/EYtd2MIFDKN1VooyfR26zXXLykm3cch34osc8BVKUZli6NucZK2CYGIZZtMxMpheNn0U4cDpXXl3sknn+wcSSD5sb4RKBu6unauxk5U9qaiWHZ/d5F3cOc0M/sdK3dNkNZsgi5Vp0mMz9zSFKfSBGC71K++vO74KYsJRsta0wjTgkspv7KRFTP1pSS5NUyN890VEnNLOy61LJXDiu+SKVyqKOkZ4+vRFwvhucuUZ+4y4y2bO19Fdxlf2pHW74MqrHDW8v333/+DH/yAg2rJN318OQUyJ9YmBCKWbTIRK4dRdjcryqY2e/bsY4891hvoyoVyvdoExo8f77XDfmQPavzE+5SnPMVrPoEhV+UuASMSPbSqSrmropJ0xUxpk7pQDpf88j8xoVjZ9Tirmjch0sj06K6fspgG+WppR4MutSZHy9KVTDGmmO60Vu4KphSmbXL4nh9l+Ex5KZNZCvCZYlLbNMEmkBwFioqXYgpw3FoxHmXUKgasxpUpl0mbEQAQTHelfIv6O9/5jvdgOeYORgzd4qyI191YywlELFs+BdUBlKVizdiUL7jggltuuaW6XHJXj8CcOXOIorKQzpgxg3balR5++GFy5Y3EtlWAk0zCWXyFVzVVFCY/KpITukvtaBsrheV7udGmy4aG8VcyuyR1kalH3dEh4WlQTjHtuBStS3ellaZf3WlNVMRVydJsSVXRgjIcpoC07MUK6NdlMSNSjGAbvgJukUxt8ksBW7lbWnMpVAXcVQZGOcytRmGXsUoCKBViAJYCN9988+9//3uXYBaA/OKUtBRL2iOBwbgZsRwMyn3og0aqZdlIy4caexM/1mcCxMA+ZUvSAu20E62//vpTpkyBGmeaR0HJABVhyjQz+51baklnzZpF7TSyzjrrkEaSw9zSjr5omDKVpkf5YpDqjg4VfdUUSVNdIxypAtpRvmHKN6wUUEYOPaOvpc3JkyeLx6Ckjp5EVHV3lWQKKyblF4OlcWmAgtGaMDAxImV05NypNT4hVxhPJQ2TyYytJoGykKXolSo/+tGPOHJQ5eBpsjiNAvxYywlELFs+BU0DsBlZPz7RnH/++fasrJympFbjBrUgD4wG8Nddd903velNxxxzzOWXX37PPfc88MAD55133gEHHLDxxhuTjbJVVba69tpru2tqCIYCxOO1r33tl770pbPOOuvvf/87zbvmmms+8YlPbLnliusOHgAAEABJREFUltpRoJmVdtylZ1K2ww47+Nh+xhln/M///I/D4tVXX/3JT35ym222IXXuNjMba9HUMjSXU6dO/eIXv3j66affeuut3gnE85nPfOblL3+5Q7BGBC9tmEvmUuTDhw8nseC4ZNtuu+173/veM88884477gDthhtu+PznP/+KV7xivfXWc7eYTqEoLZScpE9KoCxk6JSEziPk2bvrrrtcmj5prD0JRCzXdF4Grr6FZP+ym3vNL1vzwPXV8S0TAz830hUjpWQnnXTSqaee+oY3vOH5z3++fO8ir3zlK2nnZZdd9uEPf9g7imKV9uijj44ePboU2HzzzU877bSzzz77Xe961/bbb09F7IObbbYZcZo+ffrhhx9OkisbkekdSCOUycH0uc997tFHH/2zn/3sAx/4wM477/y0pz3NCUNgRPfcc8/V2qabbuphYCquZMblvFgeD+2o8t3vflfXJHPDDTekZOp+5CMf0Q6pe+ELX6jHZipu+545c6YGhf2+973v+OOPP+qoo7Sz0UYb2cQ1fsghh/zqV7868sgjSS9iK0ZSGduKBeIXAkiaFOsabTkm2uo2g95pXJa7HA+StNlMuRUbfAIRy8Fnvlo9WkU2U4vn+uuvt2a82tuPfBZbrcoptAoB7+9+brQr7brrrg5ejoNkw6dF31GVBZZocQjewQcffNxxx/ErzedWcmIv23HHHcmPdsyLmSrVNeiWig6O73nPe+gNv9J8brVpaooIHXbYYXSIRPkxVYTKN9pxHNTOySefLLPSGqL19Kc/3UHQ0KgjRXc2VV47JTCDPeigg374wx9SeoMVsLsrWuP8Wgh84xvf2GKLLYRX+HgOHVIFrKLz9ymnnCLaRpUV24nfMwHwFTAvUs+kh8fSlumXSzkui4iWp0hOrH0IRCzbZy7+LRLLhl7Kuuiiiywnu5VLmXJivScwxPu7WjTs61//Op3j2/ql1EjK7FxS5mDnpEiiHEMxZ1RBymxqToTyFfvc5z7nYGpG7GtmhwjJZA3HD6J77rkn1VGRxrjFcaSgW5wiZjIp7pvf/GYO86NgaZxf9lOO3h1bf/KTn9hGVWS6069bjIZJ5Xz0ox8lY+WIaVBqyWeNBkeMGPHiF7/YZ14olHdLqBwNCs8zpn2ZjqH77ruv3o1LqJqSyaiy4DmMHv/iF79oEFNYI/JjT0rABJk7r0QlVZ4D/oUXXshnnjEpnuX55MfahEDEsk0moiIMq8iCeeihhzjldtnOip+0VwTsR8p/8IMfdJLjINmg6nJVIzzlfz7Jrblz5xadsNO5NCn77befb7kaKZfSZuYg+7KXvUxJ258y6jYaoTEOpi996Us5unCLaClTaX4s3G233Ro7aWmtlCd4GlGA1mpKdd1JK82n47e//e1oGJFDJ0VUTAt8zrOf/WxvEr7f8jXeQzvPe97zaCqG6jqAKk96pbG+EbDMTQrgTAvebEwQJ9Y+BCKW7TMX/xZJ2Q2tn7vvvtt+VO6VhVT8pL0lAKOf4uzpZEldYiBtZuTnJS95SblLUdQqvtQskFLKVNqR04P5mfCNb3yjKsro0bRqreyDNkS3NtlkE7dkljL8SiNgb3rTm7TgroFImRakMqdNm7bVVlvxGdkr7fNXNT/QOjTLL7rLYaVrZ1A/Rhp4o3rJV2BVc+h85zvfWc6vBqXAig267It1cZ1//vOfJs7MFpjmFIzic2LtQCBi2Q6zUBFDWSfE8rHHHuN7hVeoh83L3VgPBOiKX/X8IAcmqnYlhXtWOydCtcpZzXcz5amIXYxMbrbZZi5LI8rwe7Btt9223FW9zKNLdfkvetGL+Iz2EJue49GO3hWWlk5LeUK7ww47yGeOrW5pmV9pCjsT+4LKUUBhKSZSOY6VHGbjlgpSWmkYOlyScM9kaUT1ypLJXB0CM2fOBHCliSuzsDrVU2YQCEQsBwFy37uwE6ksLauobGpyYr0lgKFDnlp2eaLFYT2Igd8Uy8mybGGqK28WXBJdemkjK+300IgqfiDceOONiRO/aBuHqeW0+sxnPtOcFoWTKTZppemu0Y5gij6VBjVlaNphuiOllS2UTPGru9FGG5VOS2EDYXIMWQHNalP5knJWNR3JfNazniU1EGn5GMuJ9YGAOWUqmkSpJ03anta1UUUs23rqrZmyYXHaOtC2D44GTJ48mQw4wJXDImUqbCtjH7/8TxlVHPtKGZccnyvJA+MTmLK78StNd6y0IAaFdSrVrDB8xjSzLktdMlacVVPdaUcVt7QjkqJzLtVyS6amFJOjcWmlKSnf4KSslCwhuXTXlk04OS57sCL/ZVwa0bWKT1qrhwZzq/EYQIGnNDxBaB+LWLbPXFREYkPcYIMN3CiLp6QuY30g8Le//W3u3Lkq2pUYheA3M6ivvfbactcpasVt64477ihfZd0lVEpyerA777zTt3QFzGZJCRtnzpw55b+KTgLFQ3KolPxmpl/nXXdFTixV4eud3/jXEMWjcZluNTPB+IXMXRV1KioDLLUMWQturY5pR0iCyZlydXD1XGbSpEkrkvfmobypkcbahECtxLJNmA1KGPY7u6GdaO211250KLPhx+kVAUeu66677tFHH0XVcRBJOxGF6KGR3/3ud/gTMIpSSqriWHn//fcTG0ozY8YMBbTQg1oo9te//pUaKSYGqQCkzM9UQirBiIcjs5nZPbWjRwWIq1SOVGvC046OmBwaLE5OpZHbhx9++L777iuNKON0WJryQvDHP/5RDlOsDJlfaYb80EMP3XTTTY1DKhRlmJXlk9kzgSlTppTHA0Ylzam0zAsn1g4EIpbtMAsVMdg97Va25nXXXddt25DdrSwkl7HeEiAk1OiMM84A1q5Ujph+CJRfmqI6INuk7FBScnjppZfyi/C4q5hUI5xvf/vb5sIGpwWZZEZmMVUYX6oX1b/zne+45LjkaLxxhrjgggtUL5k+bLrFV5Fj9pnw+MrornTKca4tLWhTeQ/JiSeeSNRlGoLfU2UyFV1yGIdxfPj98pe/zDEQKDhkT6pZBS688EJSKk6INK4Ft6SGyWEiERWHxH73u98VqsLakS+VH+uZAFBQS00WYhzlOX79NdflUo7FjrOS/FibEIhYtslEVIRhtVhFT3/608uasZBsWxXl2iyrPcOx+wvs+OOPd3gCljKRHKk9i0jwoaZ5JAdtOnHsscf6bKuKwlK3pLRBMc5ZZ51FdzmaVV15Psd+pzpzKdX+0Ucfffvtt7sspjxHO+Ud6Je//OUpp5wiR79URyoSE83RJhMeX873v//9m2++WUWZysuRunzKU56iyp/+9CcdkT2dlgjdVbGEzecwzumnn+5bK2cl05SWb7vtti9+8YvC1s4jjzwi0zlVOyVsVTyBinGmT59+9dVXU1yRMDmx1SRQcHmuQC5VTNlzn/tcnDkyYVeGr0wpkLQdCEQs22EWqmOwUbqx4447WjwcG7E01jcClExF58UvfelLZIDvQEYJCAwV4fsFrpyffF2kBN/73vdUcYs8KFwUwv7lUupnyB/84AfUq9yaNWuW75YKmzLt8OVzLr/8chrm0j5YNj6OW0wv66+//oMPPkiV/fInRyRSkZS+TDejRkr+/e9//+Y3v/nAAw/oujwMNlOFlXQQ1C//61//+vXXX99oXw7TglHoWtgGq6lvfetb5Z8hbZQsTYlcGf4JJ5zwk5/8xPfeddZZR8u+sqpuCCRZg4qhJJJvfOMbV111lRybu5SpK42tJgFUzSZ6uEm32247tEtdOeZCZpnrkpm05QQili2fguoA7HFWizUzdepUO5SvXpaQnbS6dHKfjADZ2HDDDe3455577lvf+tYbbriBmFECG1apirDzk+3ptNNOU4BayG8At7W5LNvZpEmT+L/+9a8/9alP+Y6qHTlOYzLNkcnyqZP/05/+9A1veMM//vEPfqnIEYaUKUZyOH72e+1rX+t8SZxcmncpE4AyPsddeeWV06ZNU0ymnBIJnxE8P2mr8rSnPY3u7r333rRQPm1zTuUoP3PmTJqqpNPn7rvvfsUVV8gfMmSIHNHyS2rsfKOg2fvuu68DKJ1mft1UvYxIAaadd7zjHb5Ru+vSUyqNrT4BwBtPXakF7zbbbCPTrZJTHDnlMmk7EIhYtsMsVMRQ1okdzT649dZbe51XqCwhTqwPBO699167koo2eq8gRx555K9+9SsnM9LipYQqHHfccbvsssvHP/7xIjDkkw4NWf7XEDnK4e7yvCE///nPyephhx12/vnnO7Rph34QrZNOOuk1r3nNRz/6UZlKUqxGdR3JKWZyOeaUEOr0gAMO8GnXIfWuu+6S+kFUs2TyTW96k9iUJJzlqeBrU6rZ0iBldXnPPff4iEp6nYxpnkuS6XuvXyJf/epX77HHHn/5y1+8DSip61KRX9oUPF95eqmMg+NOO+1Ewn3mFY8AiKLvrmTSG4D2CxmZjXZUj60OATOOv5I4M45vsOUfcuIzz1iZlFJMTqwdCEQs22EWKmKwG5b9SLrPPvtYYDYmO2BF0WStBgEbkFIk4TnPeQ6kZOzLX/4yqXvd6173H//xH051m2222SGHHHLJJZeAXDYpLyhOomo5dZVNjTiVXYzorrf8f9ZRO34HJY277rrri170oo033vjFL37xQQcddN555zlxqqi6WozTUDunQzlkRgFi5tb999/vMCeerbbaarfddpNSKfJG55QUiTK6VoVjLHyOdvTC8XiUdsTjDcBAtthiCyF5zWq0Y9RMYY+W8qWp0o7MhtFLo/N7rTPoEUccscEGGziPsmc+85nbbrst+Wy8K2hHrUKGw1ZtTWZsVQLWssyCbvLkyfB6NlwCWOaIo8CQ/F87EYhYttNs/Hss9kSbmvONs8KznvWssjf9e5FcrS6Bsj0pffvtt0+cONF3UULlAHfdddc5gdmnHArJkkycCQkdAl95s+Bu8RsO0XWCdNf5z2an8I033qgdFYmNdnSnYhE5xZjtz10l3XLJfDNwSd4E44MwYbZRauS2227z2ypfp3pkolJehMqX6vziyH/GM57hUjtyfJWV47ishVtuueXuu+8Wj36FpB0duSsSPoc1/NJF+eysir2bOVM6s2rH6Mp4DWrVuo12BMyP9UDAHLkLu7TgsrR9P3dZzLxzFDDXnFj7EIhYts9crByJjcnWKdcnGkcETqzPBKiFXxYJoRbmzJljS6JktEGO3V+OfAdKmUra0cCX2rNkKuwu8ZA2tjDC4xYtcdLSDgFW8ZFHHlFY3RVLutRUybE/qsjXr2+bWhOVKgLwVqRY6cXpViR8xcSggCrqSuWoJWaF3WIUUaYAZD766KMc6kj83CLAdJQjBnVXbMdlaYHDFJMqryntuNQLX7SKucUEIFPKL6ZljgLF4cd6JlAmosEQYT+lv+AFLzBlpSLCxSmTVfyk7UCgmVi2Q2yJYUj51mfz8kHMIcauZJlJoeEw+7WUyYn1QMBu7oulLSQzpV8AABAASURBVIkDl5TRpJLDl2mf4jA+5lIN2rPksIbDZ6SxUV47zpoyi5W6xZeWS03xGR2Sln51ISqXjDq6XLEXvmIqylegmMzi6N0t5lIwjQCKo5dyy12OGDjFSpt8zTbylZHD3JUy7fO1rJhLpgzjFHOrXCrASqacWA8EQPOrcJkdSsk/8cQT0bOQy7r28qQ6TfXyxIm1D4GIZfvMRUUklpB1ZRX5ZFf+l5V8r7OLWV2WmbvWnmqOINJYCIRAmxN46lOf6iu3IK1Zi/frX/96efuRE2tzAhHLtp4gMkkahWhpHXLIITvttJPvdd465Vhyy5Yt4zDaKY2FQAi0OQG/JYvQVyIvwa985Sv333//9ddfX06s/QlELNt3jopM+vFJiLNmzVp77bU//vGPezMt+b7hcKips6aXU2ViIRACtSDg7dbn1mOOOcaLr+9DWb+1mLWIZZtOk/VjIZXfgfywNHLkSIFOnTr1qKOOKvJJO+W4NXHiRE6sbQkksBBoEJgwYYJ17Ufur371qy9+8YvlP/LII2V182PtTCBi2aazs2TJkhIZ1XSC9AvljBkz5Oy9996f/OQnCWT591+8lt53333yYyEQAu1PYPbs2dayT0Tvec97FixYIGCfZKWx9icQsWzTOfIjZYnMeyjjS6mm764f+9jHPvKRj/j6SjJ9jHXLAVQaC4EQ6CuBQarnZHnggQd+9rOf1V95Ibai/X7pMtbmBCKWbTpBpNESWrx4sbNjWU6WmUy+nA996ENHHHGE0H3PKfn8WAiEQJsT+MxnPuMDrCDnzJnjfdfrrzXeeDOWH2tbAhHLtp2aIZZQOTgKkV+Oj77KElFnyg9+8IMnnXSSnz182FFAyWXL/xQjqMvdJxLKuuLlE1n5vxAIgf4jYPV5i7XuGk1acRZsuRwzZkxxXvrSl55++um+CSnPKKVURSuXE1stAi0tFLFsKf7edz5y5EjrsPzasddee/3gBz94xzve4XuOV9TS2NKlS61Vi9DqlXpvbdySP3L5X9ZnYZU0BNaQgFVGCy1A7Yxe/sex4qxQMumrz7x58yzDgw466Ic//OGb3vQmd2M1JRCxrNnEzZ07V8RWpc841uQWW2zxzW9+87LLLttss8023HBD+e4WgbSGyerYsWNlUkdHTAvbLWdTqWKxEAiBNSTgG49VphEvqQSSkUbLTY6F5qvPVlttddZZZx133HGbbrqpNSs/VlMCEcvVnLh2KVZWpmh8xrEsOZMmTXrFK15x9dVXf/3rX3/Vq141ZcoUt6RKeqtlFjB19PJLXJV3vlRRGguBEFhDArNmzSKK1iDV9DJqfVllltszn/nMqVOnTp8+/Zprrtl9992pplsWpjRWUwIRy5pNnAPiihFbmdYhc3x885vffP755//ud7/7+Mc//sIXvtBXICWtYbfKMnZpa9AC48dCIATWnIBPOCSz/Bu/z3ve8/bdd98jjjjiZz/72TnnnDNt2jRSarn5Hptj5Zqjbm0LEcvW8u9179ZeqTN//nynRmdE65CVTN+CNt9888MPP9yH2Xvvvfeuu+766le/euSRR37uc5/72Mc+9l//9V/vf//73/Oe97zrXe/6YEf+ZVAhMLgEDj300E9/+tPf+ta3zjzzTIfISy+99L//+78/8YlPbLPNNj7GekkdOXLkgw8+6KXWsTJ6WbapmqYRy5pNnLUnYmvP66rfI/ms/IOTHAdHqVddZq36GHvggQcecsghzpqf//znv/a1rx1zzDHHHnvst7/97aPzFwIhsMYEvIx6E33f+973hje8Ycstt1xvvfX8/GENepH15lpebWV6qZ0/fz69dCtWUwIRy5pNnJ8eLUJrjxYuXLhw7ty5hLPxD8YajExL1CutAuXEyaesVFYtBeioRqSxEGgJgQ7r1JoqK8u6s/osTzleZL25WnR+v/SFVlp+FnErVlMCEcuaTRzZswhL0N5hx40bVxZqSeXLZJwVjV42LvkakcZCIATWnEBjZZFGS6+xPEu+d9aJEydKy2XS+hKIWNZ37hJ5CIRACAwQgTS7MoGI5cpEch0CIRACIRACKxGIWK4EJJchEAIhEAIhsDKBdhTLlWPMdQiEQAiEQAi0lEDEsqX403kIhEAIhEAdCEQs6zBL7RhjYgqBEAiBLiIQseyiyc5QQyAEQiAE+kYgYtk3brWvNX/+fGMo6bx58/hLlixZtGjR0n76e+yxx7TJFi5cKGXlv4rOiQ0ege7ryWP8+OOPN8bd28dZRS1IPbfWhYeWv2KDLmPdSSBi2Z3zPqT8eyJlLxg7dqw9Zfjw4SNHjlyrn/4mTpxYyI4aNUovNqDy3/4umUlDoH8JeMbIW3mMG/9Ahy56+zirYiFIPbfWhYd27ty5KzboVqw7CUQsu3Penxi1zYU68ijZD3/4w2OPPfb4448/sZ/+vve972nwD3/4g/btOPYszuLFi6WxEOh3Ap6xP/3pTx7e7y//O+644/z/U089VU6v7JRTTlHxO9/5jrXw4x//+IQTTjjzzDP7PdqVGsxlLQhELGsxTQMSJOkqL9GzZs0ibJ/4xCc+8IEPHNhPfx/60Ic0+Itf/MK3LF+xilh68R+QkaTRrifgsz9te//73//ud79besghh0gPOOCA3j7O+++//8EHH2whHHTQQXzVv/jFLz744INdDzgAhkQsu/chKB+XKBnnzjvv9LlpyZIlLvvFHFs1+Oijj2p8yZIlhbJPW8VJGgL9S8Bnfy9/TLNOmR45P8D34UlWvTQyYsSI8oY3c+bM9dZbT36suwlELLt4/u0pRm9HGD9+vK3Bpa+yLvvF/N7j2KpBAqlxHeVYCUJsgAhQxwULFmjcw0Ym/YTJ78OTXGpJNViq006+nFiXE8jJsksfACc/SmZPoZEMBb5dhtMv5uurLaY0aNPRph6jlzjEBoJAeTPzSHvYPMm68JZW/lNs/NU3LTSWA/X1zqcdja9+CynZqQQiljWY2YEI0Qu4bYV6eXEmafYIO0LJkbnmpjUHVttW+RRmCBpnnFgIDAQB2uZJJnVM+97V/BDQ2ydZCx5avx1YIBopq0MmP9blBCKWXfoAlA3FpsDx7uzYZ3OxTbjsF9PUnDlzRo8eja9eXOpF6jIWAv1OwKPlYfPoepJL43yOtFemCoH0hif13GqtNCs/1uUEIpZd/gBk+P1FIO2EQAh0MoGIZSfPbsYWAiEQAiHQLwQilv2CMY2EQAjUgUBiDIG+EohY9pVc6oVACIRACHQNgYhl10x1BhoCIRACdSDQnjFGLNtzXhJVCIRACIRAGxGIWLbRZCSUEAiBEAiB9iQQsfz3eclVCIRACIRACKxCIGK5CpJkhEAIhEAIhMC/E4hY/juPXNWBQGIMgRAIgUEmELEcZODpLgRCIARCoH4EIpb1m7NEHAJ1IJAYQ6CjCEQsO2o6M5gQCIEQCIGBIBCxHAiqaTMEQiAE6kAgMa42gYjlaqNKwRAIgRAIgW4lELHs1pnPuEOgswiMGDFi+PDhy5b/GdmwYcOky696kagycuRIKXv88cdHjx49f/78ESNGuIx1OYEWimWXk8/wQyAE+o3AokWL5syZs3jxYsI2fvz4tdZaa+HChVof2ss/VTQlnThxoqYW/OtPTqzLCUQsu/wByPBDoBMIjBo1irwZCb0kk0uXLuWzXhwqlxctVaQkU1Ocdddd1/mSE+tyAhHLLn8Anmz4uR8CdSBw3333kbfy6bWInMMlBe1t7HSxNOJIqa7vumPGjLnjjjv4sS4nELHs8gcgww+BTiDwtKc97bDDDjv33HN/9atfXbD877zzzjvjjDNc9sp+/vOfT58+/fzzz1dLC/yjjz56k0026QRGGcOaEYhYrhm/1A6BNiCQEBwrn/GMZ0ydOnXatGnSYrvssovLXtmuy/92W/63xx57aGfrrbcO3hBAIGIJQiwEQqDeBHwvLTZ06NAyEp9hfUH1TbVXNuJf/8HXoUP/t50pU6aUBpN2OYGIZZc/ABl+CHQCAdJoGM6XQ4c+IXJLly5duPw/DcvplWlk3rx5jz/+OInlL1u2bMmSJVL+GlsaqDeBiGW95y/Rh0AINAiMHDly6NAnxJJ2jh49Wj6nV6bK2LFji1Lyhw4d2mjTZaybCUQsu3n2M/YQCIEQCIEVCDR3I5bN2eROCIRACIRACCwnELFcjiFJCIRACIRACDQnELFszmaw76S/EAiBEAiBNiUQsWzTiUlYIRACIRAC7UMgYtk+c5FI6kAgMYZACHQlgYhlV057Bh0CIRACIdAbAhHL3tBK2RAIgeUEZs2a5f8vXrx40aJFHDZnzhzpsvb4a3kU5d9hnz17NiZLlix5/PHHObFaE4hY1nr6EnwItIZA+d/DWrp0afnv71PKY4899u1vf/tb87ecwFVXXWViCpzhw4cPHfrEP5XQeLFwK1Y7AhHL2k1ZAg6B1hMYOnSo0xIxYKJxkjv33HNPPfXU/y9/ywnccMMNjpUjR44Ep2EoNfw4Q4bUjEHEsmYTlnBDoB0I2Pedk5yZSjCjRo1ySUHlxxDwGXbMmDGFD18OUCtpp5xYjQhELGs0WQk1BNqFAF0s/wMdS5YsmTt37lprrSVn0qRJ7RJfq+Mgk0wUzt+Nj9UQyYnVlECXimVNZythh0D7EChiIHWslJKEmTNn0oMYAosXLy4zBQs+xSecxUlaRwIRyzrOWmIOgbYgUCSBUoqmfGP0vTGGAI3EREo4y8+6WPFlxmpKIGJZ04nrhrAzxvYl4Our4IiBdP78+c5MJJMqxAqBcppsqCNQzMdquGI1JRCxrOnEJewQaCUB56RG9368pBDkk2Q6X0oZnWDOWHw60QFG/4zIcFY0A6w0QPAx6uLwFZPG6ksgYlnfuUvkIdAyAmPGjNE32RgyZAgJGTJkiJMlZ9Hyf6OAQtBORi3cYqSi7jZv3jwj8mbAjMhgOQZYaQsWLFDGkKXMmRITTqy+BNaqb+iJPARCoIUEKEeRTEogjLlz59IG8ukExpEjv6EQpKXW5lXAiBiBNHCOMTIDrDSDVQYBUsphKkpj9SUQsazv3CXyEGgZAaLoS2yRhBIEYRg7dmzxi0KMHj1aphyiUnfzedlAmCOjsXAMjWriUGlFXJVR0m+60tZael9zAhHLNWeYFkKg6wg4TpWjEl0kmfSDNHJkNnSCmjKX8usOyDfYMgTj5RgU4xhapfkcbewKACUttVDix2pKIGJZ04lL2CHQegIkoRyefIOlB1IKUXSFhPCFOG7cOCKhWK3NQJybfWE2Cq8FBmvsjpuGVmluOYM6eqpYanEWLlwojdWUwMCLZU3BJOwQCIHmBCiio5UvkI0iO++88+tf//pddtlFuscee+y999677747n1EOhetuRSMbYmng22yzzbQmf5tvvvmECRMIqmKxziAQseyMecwoQmBQCfjcqj/6V36QGz9+/Mc+9rFf/vKXF1544VlnnfWzn/3stNNOO/fcc+W9c641AAAQAElEQVQcddRRO+64I9motXktcFJ0VnZYLF9Wp0yZQih/3eSPjuLjAOrcaeBSl14apLGaEohY1nTi+jnsNBcCvSJQxFJa/gOx6tJLKaMrPr0WR7rOOuv4POurbK2N2tE8w2EzZsyQzpw5szFklytZ+Z8wU8CoHUmlCjiVSmM1JRCxrOnEJewQCIEQCIHBIxCxHDzW6SkE1oxAaodACLSMQMSyZejTcQiEQAiEQF0IRCzrMlOJMwRCoA4EEmOHEohYdujEZlghEAIhEAL9RyBi2X8s01IIhEAIhEAdCPQhxohlH6ClSgiEQAiEQHcRiFh213xntCFQCwLLli0Tp7T8dxOLw+f0i40ZM2aldkaMGCFHp7EQqCQQsazEMpCZaTsEQmA1CFCvhjoq/vjyPzn9YvPmzdPmijZs2LDyTwesmBk/BBoEIpYNFHFCIATaiMCiRYuWLv8bPnz4qFGjRo4cOWrUqOUZ/ZAY59prr63lcePGjR07lgDPnz8/J0tYYs0IRCybkUl+VxPI4FtLgIw1znmbbLLJy172sq222uoFL3jBdv30t8UWW/zHf/zHkiVL5s6d65RJJh1kHS5bO+r03s4EIpbtPDuJLQS6lAAZI2DUa5111jn00EPPOeecK6644uqrr/5dP/1df/31Z5999l577TVp0iSI9bV48WIpPxYClQQilpVYkhkCIdBKAuPGjSvdz5gxY/To0eXfJXfWdOJcwfrualybM2fOnDVrFp8qSzUnjYVAJYGIZSWWZIZACLSSwMKFC3Xvp0S/Ty5YsKCc+Rz+lv+nfPoh0RTppZF+B5X6Bqs7v5JKYyFQSSBiWYklmSEQAq0k4DOs7sePHy8lmYSNU4SNtq25EUsNzp8/nyoX7XXpCCuN9TOBTmkuYtkpM5lxhEAHESjq6BssXXS4NLKScvrFxo4dqx1fYqW6KNpJOF3GQqCSQMSyEksyQyAEQiAEQuD/CHS2WP7fOOOFQAiEQAiEQJ8JRCz7jC4VQyAEQiAEuoVAxLJbZrp9x5nIQiAEQqDtCUQs236KEmAIhEAIhECrCUQsWz0D6T8E6kAgMYZAlxOIWHb5A5Dhh0AIhEAIPDmBiOWTM0qJEOh4Ao1/vKb8awDGO3PmTOlf/vKXH/3oR0ccccRJJ510zTXXzJgxQyabO3duo+TixYvnLf9fvFqwYIFbsdYRSM8DSCBiOYBw03QI1IXAyJEji15SvhLzH//4x1e/+tXbbrvtAQcccPjhh7/zne/ceuutd9hhh2OOOeaRRx4ZN27c8OHD58+fv3Tp0hEjRpR/QyD/Ak5Bl7QjCUQsO3JaM6gQ6DUBerlw4cIxY8ao+Z3vfOdDH/rQ9OnTnSDJ54QJE8o/eXPjjTd+73vfO/TQQ//5z38qRikff/xxDr0sDj8WAh1JoN/EsiPpZFAh0CUEKKKR0jzp2Wef/bnPfe7WW2+dPHkymZQze/ZsH1rXWuuJ7eKWW245+eSTv/CFL8yZM8f5ctmyZWTSKXPYsGGND7OqxEKgwwg88fR32JAynBAIgd4SIJOOleTw4Ycf/vCHP/zQQw9NnDjRz5aNnyHd8pWVKTlq1Kjvf//7l1xyiV7kE0sOI5zSWAh0JIGIZUdOa7NBJT8EmhIgge5ddNFFf/vb35wUy8+Q5cTplkMkUaSdcsiq9Oc//7nfLFXx/VbqWElHObEQ6EgCEcuOnNYMKgR6R4D4qeA3yN/+9rfEj/LNmjWLQDpKOjtSR19ipcrQUfkyL7jgAkdPVWQyVaSxEOhUAhHLTp3ZjKu2BFoRuEMhOSSBt91226JFizii4DhKkkOXCvhVUiZRnDt3rsx7771XJkcmrVWGEwuBTiUQsezUme3AcflJjJWB2bLLNu1SJp9xYn0jAKNvrc6OJJPvcCmljj7GMm0W4Pxi7irvp01HT+QdN1XhyI+FQEcSiFh25LR25qAa27Th2Z0dZfyK5kxjK+ezUiBpHwj46Ert6N/48ePhLeZYWZykqxJITrcRiFh224x31HipAtWUOvfMmzfPT2iEM9YHAuW/XunhKKdDH2D5To3SWAiEAAIRSxBi7UvA3s3s/iuFSBpt6I3TJMkcO3bs5MmTCWesDwQcK0F2vkQb6pLmZAlFrM4E+jP2tfqzsbQVAv1NwA6+UpNybOWk0f7uljOlPd2PbXzmMtYHAhgCW945Jk2a5KDJQIY0FgIhgEDEEoRY+xJoHJJKiDZ0SumnSmnJsb9TTUdMP14SCZexPhAAE8Nx48Y5XLL5y/8c3+XHQiAEEIhYgjAglkb7hUARy0ZTNJJSMjs7324+d+5c32MVoKP00kYf6wMBJ0un83vuuYde+po9bNgwJ0vwgY2FQAggELEEIda+BFbdr4kiO+200z71qU+95jWv2WSTTSZOnGhn983QRv+U/PWJwLrrrjt69OiXvOQlF198sVOl1xEpzu37ZCSyEBhcAhHLweWd3poTcLhp7M4+qDYKyndkLJd33HHH5z//+fXXX/+tb33rkUce+bvf/e7hhx9W2CmTKWOX742l7P8R8F7y0EMPSZ3UpcUgrTR31UTeXad8KWs4/FgIdBiBiGWHTWiNh+NkYwumebZgqillxmPvHjFihPSzn/3sTjvtdOyxxyojPxYCIRACg0YgYjloqNNRTwQcU8ptzvDhw6nj8OV/Dz74oK+sd95557777vu1r33Nj2qzZ8/2O2UpnLQrCGSQIdAGBCKWbTAJCWHIEAfHgoFMFqccH9dbb70bb7zx4IMPPv300x00y/+8ojNoKZM0BEIgBAaHQMRycDinlychMGbMmBVLzJs3z0+VJefTn/70OeecM3nyZILqWKkkp9xKGgIh0CYEOj6MiGXHT3FtBrh48WLfYIVLC0eNGjV27Fj+F77whWuuuYazcOFCKfN1thw6+bEQCIEQGBwCEcvB4ZxenpwAjRw2bJhyJLM4f/3rX0844QQ/W8qcP3++T7JrrbWWw6VfMeXEQiAEQmDQCHSEWA4arXQ0kASGDh1ami8fYOfMmXPeeefde++9tHPkyJFuFdWkl4899pjLWAiEQAgMGoGI5aChTkdPQqCcJinllClTli1bRiC//e1vc5YsWeK7q6+v6nOIJWfo0KFuyVx77bWf//zn77LLLlOnTt1888133nnnrbfe+hWveMVOO+203Xbbydl9992VHNHkzy2/hupLs34N9e2XaZxp9uUvf/n222//0pe+VIO77bbblltuKafSdthhB2X0pZHRo0drRNqkzyeyta/MOuuso9/x48c7K+uIVTYu85WvfOXLXvYyXTCRbLXVVtOmTdtwww2faKvq/yDSMj7MN+0SFX/dddc15Ne97nUoafAlL3mJmEv7cvbee293xaYuR0XttMSQ0a9HwqsSkoIRkhxOv5jPGFrzQqZxXfBZ6YITC4FVCUQsV2WSnAEh8KSNlq3KTq2kvcxPlQ8//DAhcEkvGUcZxqGaz372sz/zmc/4VHvTTTeddtppZ5xxxvXXX3/22WdffvnlF1100VlnnXXppZfKOeigg9Zff30NVhqZnLv8H8zTr59F+fPmzbMdjxs3jlT/4Q9/+O1vf6sdDf7617++9tpr5VSafpU85phjNthgA1+MNSWt7LFkkgF9GaCdWo+HH374Oeecc9lll1U2LlPjV1xxxcUXX6wYU3L69OmvetWrSmurphAxA9G+9w9dSPlO5//5n/950kknXXXVVRrEyvFd45dccslvfvObr3zlKxQUE3hVNwppSwwZ/VIy020UIvGTthzT1C9mjFrTOCzFaaScWAisSiBiuSqT5LSGgJ1Lx04/NkcOfbLF2xn5DbOJEwaXm2666Te+8Q0aQwjtpE95ylPI2yOPPOK4pgU2YcKE0uC55577wAMPqFJpSmpQjwrTEmX4zIHVSatc2ljd1bWO5FSa7ug6gfzHP/6hAC2UqiWttLL1u6VxkuBY7IDrspmJ0y3NOoPqyElRtFRTZqUZgoCLlQJyCkyH1NKXgSPsrgDckrnxxhvz6YeOmEx3W2giNAQBCEb8nP6y8u6FpAZNUzlDQ+oyFgKVBCKWlViS2QIC9iy9Su3RNq+rr77ape1SymQWweDbOj/5yU/uuuuufAXKliezfLuzqzK3HN3IpCMUKXVZaWXTbNzSe/EPOOAAsqSFIie0zS1RabnSFPNL6gknnKCkUEtIZaMvDa6UKsC0KX7C/6xnPUuzs2fPllaaYowYa1zM/PPPP194KzW74qV2BKA8ky9lPnETZqzk0GljVIwPlHTIkCFFMFQsVjIHPwUHbTB1LWyXouWLtl9MmwaIvzY5kHIaDxg/FgIrEYhYrgQkly0jUPavshUK4u9//3vZy+zsbhWTz3nGM57hW6LTFbVQhnHuueced6mIAhxme/U17+6775bKrLSyHTtOFccGraIet912Wzkc6iKnSAinshGZTrTu+qQpteeWzZfvVqUpY49myuy5556TJk1SzPFUWmnGwmiG8sYrnlNOOcVlZWGZ2leS8RVTBVhRveAFL3jmM5/JcYu5y5yYHdBdMpdSgSmvFr8lBn4J0iybU+8iQhKJ8PrFzKwGjRpVzepOqiNpLAQqCUQsK7EkszUE7F9kQN82ypkzZ7rk2/dt3HzmkqL4tdIhjO/Tq220OBtttBGn7H1l1yMSfkqcMWOGfC00M3dLFxz9Sh31iKXqRNSlnbQ0++ijjwqv0pT585//fMcddxAYPtOmus069alTOwqsu+66r3nNazh+TXRwlFlpZUSlTV2QNz9bSpu1r4w2i2mwoHO51157kR9SoS50mtWCVwQFmMNxIaAkK91xBt8o4vjx4/WLyZFHHrnTTjttueWWW2yxxQv76e9FL3rR9ttv74UDAb0YqSlGhl8DS4itIBCxbAX19LkKARt6ybNLMpf2r5LTSEuO3c3+TmNKvg+JCtMeWz8BKJllx3d54oknyllvvfWklVZEhU6Uu0XkqJdmdSRTy+6Wrp3/yEylzZkz5ze/+Y1iJFabQioxaKHSyr5spITZQVkZ34plVjYuU2vCMHDxKHzFFVf885//5DQzATRuFV9UPlNvtdVW8vVLIJ2GKQRfjsYV8PLh/cAto5BZCHAG34yUcpd+//a3v/mWfuPyv1v66e+GG27QJrDm1FxDZOoJc+kxaQisSiBiuSqT5LSAQNmX7df0Rvd2MRu3S759U8rs7FJq4Qc2Qkg/XBazxdv61SonTpc+vZIT+6xaDm0kodJKF6WpohBOrrvssotmdSGlHIyjQe0LptLonB8RtaNWaUcVmZWdyiTtCtipt9lmGzLJF4nMysZlGp3dXEXDcfmrX/1KFYHJqTS7vwJMs1JmXE996lN32GEHviBLARrpkl+KaYrquyuzMQr+4FsZpn45UiYeQQq4X6w8ZgZusFQZUu03+tJdLARWItBbsVypei5DoH8I2Ac1ZM+ihRy/QfppjebRAzpqa2NFCG3of/3rX6dPny5HBxvgFgAAEABJREFUSTsdDeO4K4eokBw5nJ/85CcUQnWNaLnSyJu7yqhCjRwybJrTpk3ToLpS3UlZkTSXlXbllVfeeeediunX/sthGq/sVGbZl31qPvjgg5WXo7zxVjYu012pOJnCPi/LYfxKc0trBiUGAzSoWbNmve1tb5PP5LjFKdj5GndJPLyjcKBQkdMqE4CQWMMRj5HK6Rcz0tIO+MXREWvVeNNv+xOIWLb/HHVFhLZv47Rr2+I5jlx+NSR79jKXNkpWNjU7JvvEJz5xwQUXuEXepMy+r7AWyJVLanTmmWcW6eXLaWb2TbdKSnpf+9rXakpOr4x4UyNVyqe8Mgpxyqk0mmc4foDzPbkUVqzU5VSaUTCFzznnnPKfZioxVxaWaewKAAILGVh//fX32Wcf+ZUmGPnl0MZhMHr54MRCIAQQiFiC0HFWzwE5TZbACQln5513lrLGlm3fb/h+ujr++ON/9rOf3XXXXbZ4xcgtIwwufYC97bbbrr32Wr5bWiYGleYuGdYyHXKo8uF0zz33lNlbI8za0UgRSJHoTu/SZvb0pz/dR1FdN/oSQMNfySF7jP7phTBrEwp1OZXmKFlaaAi/b7DlPzJT8ldKcdM+vTeEUsUs6GulYrkMga4lELHs2qlvu4Hb9EtMZY/ebLPNHLxkNrZv2uOEpExRgp///Of77bef09Jb3vIWzjvf+c53vOMdvmruv//+n/rUpw477DDlSdeUKVM42qk06qh9xXRKfpztnNu0oKlKe3uTP9pMYxz7hFdMm5zKTmW6e++995LzQw45RORvfetbfSM96KCDKjuVeeCBB7r7rne969BDD/3FL36hZX2hoalKc8vQnA45NHXy5MmE8Etf+pKmKu3973//Bz/4wSOOOOLGG2+ES/silMZCIAQKgYhl4ZC09QTs/oKwuVMvpxz7O2GyZfsYa/smRe4Ws/uXS4WvuOKKn/70p2eccQbt/MEPfnDCCSf88Ic/PPHEE3/5y1+SChUdK0utypQ66kIxpiMta+SUU045tcmfxitN47RWPMXRLEdr0kobP368Md588826O/nkk0877bQf//jH/CbdnmpEJ510kjJHH330Qw89pE1diJnTzATjDaDcNUZH8G984xs9tH/c8r8H/vWvHQnPiEr1pCEQAhHLPANtQcDOXvTPOckeTWY4b37zmzfZZJMSn8ziSH0zLDphQ1dSju+TMjkaaXzMpBByfE6Uya80BTSlAEcMa6+9tvI+V8qstMpGZAqDMhEw7TCNSGW6VWlz5sxRwGlPLQXK6AyhslOZDtPrrLOOr7tqGaDyxi5sdSvNLS0z5ZmONMKRVpo23RW2lr1k8DXbqO4yFgJdTiBi2eUPQLsM3+ZuExeNzZoMcKR+1fN5sKGXpYBzp33cx1VlGE31vVGOnV1dZQinfD7p0iyfxihQaURIC6WYkuXQ5ojJrzSFK01hXUs1JXIOo76VncrU76RJkxTmCFWbyvdgmhIbNVXGWZmqcdTVVKWVY7qWCXZp3BuAS7UqrTFkGHFTRkVp11sAhMD/EohY/i+I/L/WErA104MSAzHg0Dwy4DfI8g+aFymSX2RgxowZNNIZqGzuqjM+PaBVbqmrsFoTJkwou7/LVY1cqcU0xVeAGKtFYCpNs81MdVWKgJV2RMKpNIPVC1NG7y5V17UWKs3d0o6v0xwlpSKRVlqRVUxK+8ogo6PKxmVqqrSpJF93yvNjIRAChUDEsnBI2noCzn8liPLfBvFh0CZOez772c/us88+Nnp3ncaK8tnZna4a56GiOgqUYsoQCZds9uzZ0mZWRMVdTWmEo1kpwag0typNXaZKo8HSTmVhmdTIO4G0+MURvBYqTeNKspkzZ0pL4yV1uaqV4ePQuFUqVjYuU7FSBVjB6K4xELdWNVPDGvmlhZI2MuOEwCARGJRuIpaDgjmd9JWA8+ULXvCCz33uc/vuu6/d2W9vDmF0lE6Uzd3O7gwkLT1wKs0Zq1dW2UgPmaX31U+pUaWtfgv9W9LQxKNNeIvmyUFMTiwEQgCBiCUIsfYlQCCJ4qabbnrCCSd85StfKf+MjkOPr6blJGqLdyBTxhgcQ11WmgK9sspGesjUe92NRhJIo4CR4xIxl7EQCAEEIpYgrIml7sASoIhOkw8//LCfKg899NBLL730wx/+sN3cV1OSqW/bujI+HvKdiohrpbnbK6tspIfMXjWusLArzWGuJeY9QFSO7DSS8UvKiYVACCAQsQQh1r4E6N/kyZPLgZJAbrLJJp///OevvfbaL3/5y/vvv78vtPZ0qumrLAWdMGFCb5WmUrEGIZM4VZrDXEvME+BVgFhyMBfbmDFjHN9dxkIgBBCIWIIQa18CJJBGOlwK0d7tfGlDf/7zn++U+a1vfevCCy+866677r333nvuuefmm2++/PLLb638u/XW25r8NSl+q9YG1G5p8ndTi/5uv/32P//5z6effvp2222HM9rz589HnhMLgRBAIGIJQqx9CVDB8ePHT5o0yfFxwYIFAnXwuv/++x3+nCOf+tSnPv3pT3/a05624YYbPvvZz37hC1/o6Flpz2ry95wmf1obUPMrbKU9r0V/BvuiF71oq622cqB0TMfZe4k0FgIhUAhELAuHpG1KYKONNhIZpRw+fLjt2xdCW/kGG2xAOH0qdItxlixZ4nusD4ku+8WIca+st59/hVppveq0HwsjjJtTO5KMj6p0MC19hUA7E4hYtvPsJLb/JTBq1Chq5MJXWUcfDuEkFRzGIaW0hy+tNLfayiqDlNmqIIHVtXcRB3cO81LSQzyktGBXkl9Kel9xGQuBjiQQsezIac2gQiAEQmAgCHRvmxHL7p37jDwEQiAEQmA1CUQsVxNUioVACIRACHQvgTqJZffOUkYeAiEQAiHQUgIRy5biT+chEAIhEAJ1IBCxrMMs1SnGxBoCIRACHUggYtmBk5ohhUAIhEAI9C+BiGX/8kxrIVAHAokxBEKglwQilr0EluIhEAIhEALdRyBi2X1znhGHQAjUgUBibCsCEcu2mo4EEwIhEAIh0I4EIpbtOCuJKQRCIARCoK0INBHLtooxwYRACIRACIRASwlELFuKP52HQAiEQAjUgUDEsg6z1CTGZIdACIRACAwOgYjl4HBOLyEQAiEQAjUmELGs8eQl9DoQSIwhEAKdQCBi2QmzmDGEQAiEQAgMKIGI5YDiTeMhEAJ1IJAYQ+DJCEQsn4xQ7odACIRACHQ9gYhl1z8CARACIRACdSDQ2hgjlq3ln95DIARCIARqQCBiWYNJSoghEAIhEAKtJRCxXD3+dSi1aNGiZcuWLVy4ULCPP/64dMmSJXIqzV02e/bs4cOHr7XWWgsWLHA5bNgwab/Y0qVLtSPVO2fo0KFS5rKZuVtszpw5Ait+0j4TwNkjUap7Eoojs9I8A4sXLx4xYoQp4yvsYSgOv9KUnzhxoi4Ue+yxx5ThSFUsj5PWXMosd/n1taFDh2I4fvx4QwBQauGMHTuWX2kwKlNs/vz5ZT2WtGQmrR2BiGXtpqxpwCNHjrSkR40aRS/tUMpZnHIqzS0FVFH4oYce2mCDDSx+24HMfjE7iK3EvmmjtKtq0646b968ymBKpjIzZ86U2pImTJjA0Yg01jcCDaoNjLNmzSqZq6a6mDt37qOPPsopIucJYS6bmTl65JFHPEIKTJo0Seotx1ybaA+hS9XphEnfaKONXNbaCkOjMwqj82BbL3feeeeqJEuOBUgvIfX8jxkzRnkV3ZLGakogYlnTiVs5bLsS2bOY77///v3333/atGm77bbb6173uqlN/nbdddc99tjjjW984//7f//vbW9726233tqPSlmCs0ueeeaZ73znO/faa69Xv/rVu++++xve8IYm4UzdeeedBbz33nsfddRRM2bMMJAyotLUaqYp1iBAqPi2bKldmyP1bDTj7zHYb7/93v3ud19//fUeJOVJgro9GOl9z3ves+OOO5q77bbbbtq0aR6nPffc87Wvfe3rX/96T5cJ1ew+++wzffr0Htqpxa1Co6wRD6eYPZ8XXHBBM57Wl+F74N/1rnfddNNNvpR4h1BFxVhNCUQsazpxK4ft7dV6diaYMmWKNVzs4osv/m2Tv0suueTXy//OP//83/zmN955VS/ng5Wb7tO1Y4cGH3jggbPOOuucc86xXQrm97//fZNwfuuumN295ZZbhGEgRjR69Og+dZ5KQ4pYmtbiED+OtxCEK+3ss882Tb/4xS8chuCjrMpzmpnTv6PVlVdeefnll5u7K664wvQxj5P03HPP9XDJ15dLs9msnbrkl6NhiRYZfPjXXXedAVbahRdeKP/CC59I1bUcHMHHjRunVqymBCKWNZ24lcP23uokZ6fzvYjjE6gdyouwhVpplq4mlCkLWC3nCWcFmf1iXqU1WJqyUxfHT1mVwci08yojDEPg2Ix8Emy0ICfWKwIANsoX/oTTkQjqSps8ebJ3FFW84kgZSVCSU2m+uJostzTuWdJ4KayWTM+VTKm7jlPuyvyX1fL/l0fRQMqDanQMZKNuZt72DNULCgiefC1AISdWUwIRy5pO3MphW7oEkvI5jVnDtkVKqZDNq9IsYHdLGatddRuB3U1mf5k2haS1knJYZTAyy84rBiY2ZvtubNwqxnpFAEDlUeVAymcmGupK82txeVVyt1G+4ai7klGC8rTQAC9qOvLU6YuWsPL4SUsL7q5UvXaXRldiLmMxajl8uJpZGXthYlV6mEErjSStI4GIZR1nrSJmp0lLt9wggfYplxZqyVk1tdRlWudOclL7XVnbMvvLtCkqrTmFSG0WtlFOpdnH5dNXqchZD8ErE+uZQFEys9yYVn7J7KGi3Rz5UozjQWpW2CHJaalogJlVxQzqwoNXJo6vrkakJYdTa/NwGpTFUkbRA5xSoDH2sgpUVL3cqkGaEFchELFcBUk9M5zeLE4L2DuvM5kjZtm8mo2Gkln8ZRfz+5NilMxOx+kXs4Fqx2Yq1ZHUri08Tg8m5jIKO4ti/RiP1rrK0DZeMKUMT1am2+WqZvZlminFPBtKymEyK82PcPKV97wxM9VQgjL1CmjEY0lHFVC41lZIGqNBlQF6Vsvj3WxcCrilsFocM1Ia4cfqSCBiWcdZaxqz3c2atDjLedHCdtnMbHBWr7sKS11Kmzbdyxs2XK3ZJaWl5eK7rDTlBe+wIiTba+lNTnGS9o1AAeh5sHHbtXuYAhppXh577DEpMwtyWLN+fS1QzC/T0mJ6KU65JdWIAt6Q5Ddrpy75hlAeY4PyrLo03h54KoCA0alVZgFMsyAnVlMCbSiWNSWZsEMgBEIgBDqWQMSyY6c2AwuBEAiBEOgvAhHL/iLZZe1kuCEQAiHQTQQilt002xlrCIRACIRAnwhELPuELZVCoA4EEmMIhEB/EYhY9hfJtBMCIRACIdCxBCKWHTu1GVgIhEAdCCTGehCIWNZjnhJlCIRACIRACwlELE1ObRsAAAmdSURBVFsIP12HQAiEQAjUgcCQIRHLesxTogyBEAiBEGghgYhlC+Gn6xAIgRAIgXoQiFi2/zwlwhAIgRAIgRYTiFi2eALSfQiEQAiEQPsTiFi2/xwlwjoQSIwhEAIdTSBi2dHTm8GFQAiEQAj0B4GIZX9QbI821lrridkcMWLEwoULS0RLly5dVpO/4cOHL1myZOnSpWUULsv/HGAZSNLeEnj88cdVAbNQ5eMJb7PHQYFKa1a+WX5lIzKblR/k/D53ZwiV1kODo0ePVgX/UaNGmQ4L02WsvgSe2F7rG30ibxB47LHHLEj28MMPT5gwwS7plvXJqYsJeO211yaT999/vy1m2LBhQ4cOlRnrAwGTThpVhJHPsWXDy6+0Zpv+0CZ/GuyVNWmmNtnN+FTClGlgqkA0ceJEa9PzvHjx4vnz58uJ1ZRAxLKmE7dy2NakbZGtu+66p5xyym9/+9uLL754+vTp0lrYRRdddP75559xxhkf//jHN9hgA5I5ZsyYlQeZ69UmYLMuYsmxd6tHLNdff/1mD8OFTf4uaPLXrJ1m+U2aqU12EzwXNhuvpWcNGt6pp5665ZZbgu/NNY+053A1rE2LRCzbdGJ6G9aiRYu8wM6ePVvFXXfddcflfzvvvPOravK3/fbbT506VdTPec5zjGXevHkLFizw5dBwYn0jQCzL4aZRfcqUKc0eh12a/HmEKs1MVdoOTf4qG6lRZhM8u/TAszzSu+22m+fZwzx37lxOYy7i1I5AxLJ2U1Yd8MiRIx0ufYB120nCBx+ffZwqfJithdnWmYC9gBvC2LFj/eQzfvx4fmwNCVBNnwE14sHo7cOgVqU1a0dflVbZSI0ym423Wb5PI5gvXLjQwmQe5nHjxpVnu0ajTqgrEohYrkhjSH0vSKNNSvzlNOZ7rJ3RJacWRibFKWBml5GyhsOP9ZYApEyt8mBwGMi9Mi1UWrNGPHWVVtlIjTKbjbdZPtRG5+srx4HSFDCvsC5jNSUQsazpxK0ctpdWmxR1kbrnZdYypqD8GlkJWPBi9s7u9ZwT6xsBm3WjYiFZ8DYyV3Qc6yvNLPTKKhuR2atG2rCwIVTaigxX9EmjBVhyOH5WsDB9Lyk5SetIIGJZx1mriJlMyrUnWpAWqndYa5uCSmthYhZ/2c3LLl98matYMp6cAL1pFLJNFx/kZg8D5pVmo++VVTYis1eNtGFhQ6i0Zjwxd6CE3a+VhlP+oz1lkcqM1ZFAxLKOs1YRM5ls5FqoFqe1LUdaCxOzaCm91OYi9TOPNNY3Ahg2HonCVju+CjZ7GNyN9YFADzzLB5LyGJsOjTdmhB+rHYGIZe2mLAGHQB0IJMYQ6CwCEcvOms+MJgRCIARCYAAIRCwHAGqaDIEQCIE6EEiMq08gYrn6rFIyBEIgBEKgSwlELLt04jPsEAiBEAiB1SfQOrFc/RhTMgRCIARCIARaSiBi2VL86TwEQiAEQqAOBCKWdZil1sWYnkMgBEIgBBCIWIIQC4EQCIEQCIGeCEQse6KTeyFQBwKJMQRCYMAJRCwHHHE6CIEQCIEQqDuBiGXdZzDxh0AI1IFAYqw5gYhlzScw4YdACIRACAw8gYjlwDNODyEQAiEQAnUg0EOMEcse4ORWCIRACIRACDxBIGL5BIX8XwiEQAiEQAj0QCBi2QOcwb2V3kIgBEIgBNqVQMSyXWcmcYVACIRACLQNgYhl20xFAqkDgcQYAiHQnQQilt057xl1CIRACIRALwhELHsBK0VDIATqQCAxhkD/E4hY9j/TtBgCIRACIdBhBCKWHTahGU4IhEAI1IFA3WKMWNZtxhJvCIRACITAoBOIWA468nQYAiEQAiFQNwLdKZZ1m6XEGwIhEAIh0FICEcuW4k/nIRACIRACdSAQsazDLHVnjBl1CIRACLQNgYhl20xFAgmBEAiBEGhXAhHLdp2ZxBUCdSCQGEOgSwhELLtkojPMEAiBEAiBvhOIWPadXWqGQAiEQB0IJMZ+IBCx7AeIaSIEQiAEQqCzCUQsO3t+M7oQCIEQCIF+IDDgYtkPMaaJEAiBEAiBEGgpgYhlS/Gn8xAIgRAIgToQiFjWYZYGPMZ0EAIhEAIh0BOBiGVPdHIvBEIgBEIgBBCIWIIQC4E6EEiMIRACrSMQsWwd+/QcAiEQAiFQEwIRy5pMVMIMgRCoA4HE2KkEIpadOrMZVwiEQAiEQL8RiFj2G8o0FAIhEAIhUAcCfYkxYtkXaqkTAiEQAiHQVQQill013RlsCIRACIRAXwhELPtCbU3qpG4IhEAIhEDtCEQsazdlCTgEQiAEQmCwCUQsB5t4+qsDgcQYAiEQAv9GIGL5bzhyEQIhEAIhEAKrEohYrsokOSEQAnUgkBhDYBAJRCwHEXa6CoEQCIEQqCeBiGU95y1Rh0AIhEAdCHRMjBHLjpnKDCQEQiAEQmCgCEQsB4ps2g2BEAiBEOgYAh0tlh0zSxlICIRACIRASwlELFuKP52HQAiEQAjUgUDEsg6z1NExZnAhEAIh0P4EIpbtP0eJMARCIARCoMUEIpYtnoB0HwJ1IJAYQ6DbCUQsu/0JyPhDIARCIASelEDE8kkRpUAIhEAI1IFAYhxIAhHLgaSbtkMgBEIgBDqCQMSyI6YxgwiBEAiBEBhIAv0llgMZY9oOgRAIgRAIgZYSiFi2FH86D4EQCIEQqAOBiGUdZqm/Ykw7IRACIRACfSIQsewTtlQKgRAIgRDoJgIRy26a7Yy1DgQSYwiEQBsSiFi24aQkpBAIgRAIgfYiELFsr/lINCEQAnUgkBi7jkDEsuumPAMOgRAIgRDoLYGIZW+JpXwIhEAIhEAdCPRrjBHLfsWZxkIgBEIgBDqRQMSyE2c1YwqBEAiBEOhXAhHLfsX5f43FC4EQCIEQ6BwCEcvOmcuMJARCIARCYIAIRCwHCGyarQOBxBgCIRACq0cgYrl6nFIqBEIgBEKgiwlELLt48jP0EKgDgcQYAu1AIGLZDrOQGEIgBEIgBNqaQMSyracnwYVACIRAHQh0fowRy86f44wwBEIgBEJgDQlELNcQYKqHQAiEQAh0PoFOEMvOn6WMMARCIARCoKUEIpYtxZ/OQyAEQiAE6kAgYlmHWeqEGDOGEAiBEKgxgYhljScvoYdACIRACAwOgYjl4HBOLyFQBwKJMQRCoAmBiGUTMMkOgRAIgRAIgX8RiFj+i0T+fwiEQAjUgUBibAmBiGVLsKfTEAiBEAiBOhGIWNZpthJrCIRACIRASwj0UixbEmM6DYEQCIEQCIGWEvj/AQAA//8DZ3HuAAAABklEQVQDALxab/DfNbReAAAAAElFTkSuQmCC;" vertex="1" parent="1">
          <mxGeometry x="448" y="314" width="150.9" height="108" as="geometry" />
        </mxCell>
        <mxCell id="enXNgLlltsmvFPIuJAf--7" value="" style="shape=image;html=1;verticalAlign=top;verticalLabelPosition=bottom;labelBackgroundColor=#ffffff;imageAspect=0;aspect=fixed;image=https://icons.diagrams.net/icon-cache1/Boxicons_Solid_Vol_1-2638/bxs-cctv-779.svg" vertex="1" parent="1">
          <mxGeometry x="451.26" y="314" width="24" height="24" as="geometry" />
        </mxCell>
        <mxCell id="enXNgLlltsmvFPIuJAf--8" value="" style="shape=mxgraph.signs.transportation.truck_1;html=1;pointerEvents=1;fillColor=#000000;strokeColor=none;verticalLabelPosition=bottom;verticalAlign=top;align=center;" vertex="1" parent="1">
          <mxGeometry x="640" y="342.5" width="99" height="51" as="geometry" />
        </mxCell>
        <mxCell id="enXNgLlltsmvFPIuJAf--9" value="" style="shape=image;html=1;verticalAlign=top;verticalLabelPosition=bottom;labelBackgroundColor=#ffffff;imageAspect=0;aspect=fixed;image=https://icons.diagrams.net/icon-cache1/Electronics_Glyph_24-2602/kitchen_scale_food_scale_weighing_scale_weight_machine_weight_scale-1181.svg" vertex="1" parent="1">
          <mxGeometry x="370" y="348" width="40" height="40" as="geometry" />
        </mxCell>
        <mxCell id="enXNgLlltsmvFPIuJAf--10" value="" style="endArrow=classic;html=1;rounded=0;entryX=0.5;entryY=1;entryDx=0;entryDy=0;exitX=0.25;exitY=0;exitDx=0;exitDy=0;dashed=1;" edge="1" parent="1" source="enXNgLlltsmvFPIuJAf--7" target="enXNgLlltsmvFPIuJAf--1">
          <mxGeometry width="50" height="50" relative="1" as="geometry">
            <mxPoint x="340" y="310" as="sourcePoint" />
            <mxPoint x="390" y="260" as="targetPoint" />
          </mxGeometry>
        </mxCell>
        <mxCell id="enXNgLlltsmvFPIuJAf--11" value="" style="endArrow=classic;html=1;rounded=0;entryX=0.925;entryY=1.02;entryDx=0;entryDy=0;exitX=0.5;exitY=0;exitDx=0;exitDy=0;dashed=1;entryPerimeter=0;" edge="1" parent="1" source="enXNgLlltsmvFPIuJAf--5" target="enXNgLlltsmvFPIuJAf--1">
          <mxGeometry width="50" height="50" relative="1" as="geometry">
            <mxPoint x="564" y="370" as="sourcePoint" />
            <mxPoint x="530" y="270" as="targetPoint" />
          </mxGeometry>
        </mxCell>
        <mxCell id="enXNgLlltsmvFPIuJAf--12" value="" style="endArrow=classic;html=1;rounded=0;entryX=0.19;entryY=0.98;entryDx=0;entryDy=0;dashed=1;entryPerimeter=0;" edge="1" parent="1" target="enXNgLlltsmvFPIuJAf--1">
          <mxGeometry width="50" height="50" relative="1" as="geometry">
            <mxPoint x="390" y="340" as="sourcePoint" />
            <mxPoint x="378" y="192" as="targetPoint" />
          </mxGeometry>
        </mxCell>
        <mxCell id="enXNgLlltsmvFPIuJAf--13" value="" style="html=1;verticalLabelPosition=bottom;align=center;labelBackgroundColor=#ffffff;verticalAlign=top;strokeWidth=2;strokeColor=#0080F0;shadow=0;dashed=0;shape=mxgraph.ios7.icons.smartphone;" vertex="1" parent="1">
          <mxGeometry x="230.31" y="340" width="40" height="60" as="geometry" />
        </mxCell>
        <mxCell id="enXNgLlltsmvFPIuJAf--16" value="" style="endArrow=classic;html=1;rounded=0;dashed=1;entryX=0;entryY=0.75;entryDx=0;entryDy=0;startArrow=classic;startFill=1;" edge="1" parent="1" target="enXNgLlltsmvFPIuJAf--1">
          <mxGeometry width="50" height="50" relative="1" as="geometry">
            <mxPoint x="240" y="330" as="sourcePoint" />
            <mxPoint x="-76" y="189.20879120879124" as="targetPoint" />
          </mxGeometry>
        </mxCell>
        <mxCell id="enXNgLlltsmvFPIuJAf--18" value="" style="shape=image;verticalLabelPosition=bottom;labelBackgroundColor=default;verticalAlign=top;aspect=fixed;imageAspect=0;image=data:image/png,iVBORw0KGgoAAAANSUhEUgAAATkAAAEICAYAAAAkx4P5AAAAAXNSR0IArs4c6QAAAARnQU1BAACxjwv8YQUAAAAJcEhZcwAAFiUAABYlAUlSJPAAAD1bSURBVHhe7d13eBTl2gbwe3a2zG4aLUBAmtIED0REBUVAFOk1NAULiAJK06N+KhbwIMqRIiJYKCJFBaSqCAcBUaoCCgoKSA8lQAIpOzv9/f7Y7JKdhZCyCcnu87uuuTxnnsmG3eze+87MWzjGGAMhhIQpi3kHIYSEEwo5QkhYo5AjhIQ1CjlCSFijkCOEhDUKOUJIWKOQI4SENQo5QkhYo5AjhIQ1CjlCSFijkCOEhDUKOUJIWKOQI4SENQo5QkhYo5AjhIQ1CjlCSFijkCOEhDUKOUJIWKOQI4SENQo5QkhYo5AjhIQ1CjlCSFijkCOEhDUKOUJIWKOQI4SENQo5QkhYo5AjhIQ1CjlCSFijkCOEhDUKOUJIWKOQI4SENQo5QkhYo5AjhIQ1jjHGzDsJISWTKErgeR4WiwUcx/k3H8YYGGMwDAOMMei6DpdLCHiMSEMhR0gpIEkKBMEOAMjMdMPtdkMURUiSBMPQoWk6eJ6Hw+GAw+GAy+WCy+VCVJQTyA7HSA07CjlCSihRlGC322G1WiCKEjZu3IgdO7bj0KGDOHUqGefPp+Dy5cuQJAmKosButyMuLg5ly5ZFfHw8Kleugn/96za0bdsWTZveCYsFUFUdqqpGVOBRyBFSAuk6A89z2L//L6xbtxbfffcdtm7dAlmWzYdeV8WKFdGqVWt06NABrVq1xs0314SiaLDbreZDwxKFHCEliO+09PTpM5g3bx7mzJmNY8eOmQ8rsEaNGmHYsGfRp08flCtXBh6PDKfTYT4srFDIEVJC6Lr3RsGiRQvx4YfTsWfPHvMhIfPAAw/g1VfHoE2b+yHLKhwOm/mQsEEhR8gN5rspcPr0Wbz77jv46KOZ0HXdfFjIVaxYEWPGvIannnoKNpv32l84opAj5AZyu70Bd+TIETz99NPYtGmj+ZAixXEcnn76aUyaNAUOhwM2G28+pNSjkCPkBtu7dx8efXQA/vjjD3Op2PTvPwAff/wJnE4neP5Kv7twEJ7tU0JKAcaAgwcPYdCggTc04ABg0aKFeO65UZAkCaqqmculGoUcKVaiKEEUJXg8MjweGaIomQ+JCJpmIDU1DaNHjyrSGwz5MXv2bEydOgUWCwePJ/9dVUoqOl0lRU4UJdhstoDrPb53nW9EkmEAshz+3RmQ3U2E53m88MK/8cEH08zlG8put2P+/AXo27ePuVRqUciRIpOzx/6ZM+ewe/du/PPPYaSnpyMjIxOC4EBsbCwSEqrg9ttvR/369WGzWSHLV4YwhatVq77BI488DFF0m0s3XIMGDbFq1SrUqlULPF/6T/Yo5EiR8HhkCIID586lYP78efj8889x4sQJiKJoPhQcx6Fq1aq4994WGD16NJo2vROMsbC806dpBs6cSUaXLl2xb99ecznfoqNj4HQKsNlsUBQFHo8Hbnfhg3PIkKH44IMPYBis1H/hUMiRkPP12l+8eAnee+897N69y3zINVWoUAEDBgzAmDGvo0KFcuZyqebrD/fee5Pw0ksvmst5JggC+vcfgJYtWyEhIQExMd6gE0UR6ekZOH06GevWrcPSpUvMP5pnsbGx+O6773Hvvff4LymUWoyQEJIkmcmyyqZN+4A5nU4GoEBb9+492NGjx5lhmH9D6SXLKjtz5hxr1Khx0PPNy8bzPBswYADbsGET03XvYxoGY7rOmKYZ/n2MMSZJClu5chXr2LFT0OPkdXviiYFM0wwmitKVBy6FKORIyLjdHsYYY3PnzmMOhz3oQ5PfrV279uzs2RSmaTk+vaWU77WZOPG/Qc8zL1u5cuXYzJkfMUXRGGOMeTwyy8oSr7lJksIYYywrS2Svv/4GczgcQY95vS02No799NOWUv9FU/qvKpISw+kU8OOPP+GVV/4PsqyYy/m2bt1avP76GCiKCkkq/OPdSFarFZcupWPDhh/MpetKSEjAZ5/Nw7BhQ2EYBtxuz3WHfWmaBrfbA7vdjrFjx2LKlKlwOr1zy+VVRkY61q9fD8ZYqe5SQiFHQkJRNKSnZ+CddyYgJSXFXC6wRYsWYePGDaX+4rfVasWZM6exa1fer08CgMViwZtvjkXXrl3g8cjQtPx11FUUBZqm45lnhmHEiJHm8nVt3vwjLl/OAM+X3ptAFHIkJOx2KzZu3FiglkpuPB4PPv74Y4iiFJLW4Y0gihI4Dti1azfS0tLM5Vw98cQTGDRoEGRZhWEY5nKeqKoKTTPw4osvoXXr1uZyrn799RecPp0Mq7X0zj1HIUcKTZIUZGa6MXv2rOueRhXEDz+sx9atW+FwlN7WHGPAihXLzLtzVb58eQwZMhQ2mzXfLTgzWZZRoUI5PPXU0/lqlXk8HmzevBmWUpwUpfifTkoKq9WK48eP56urSH5IkoTff98Dw/C2ikobnueRkZGBQ4cOmUu5uvPOu9Cw4b9Cdj1SVXW0bNkK1atXN5dytWPHdiC7RVoaUciRQuN5C06dOonMzExzKWSOHTsOTdMCVqYqLXjeinPnziIrK8tcylXnzl0QFSWErHWsqioSEhLQqVNncylXKSnn4HZ7YCmlzbnS+a8mJQrHAWlplwq0/kBenT17FoqilNKQ43D5cjokKe8tIYfDgbvvvtu8u1AY864b0bZtW3MpVxkZGcjMzKSQI5GtoBfF8yo9PR26rpfKkOM4713O/LTI4uPjERsbi6J4WePj4+Fw5H0iBI9HgiRJFHIksjmdjiL9EDgcRfv4Rc0wjHx9EXifKzPvDgmr1QaXy2XefU2KIkNRQnNd8EYove8aUmIwBpQtWw6CUHRreVapUgU2mw2lcag1Y97xpjZb3heLycrKyr4Gaa4Unq7r+bq0wPN8vu7IljQUcqTQdN3ATTdVQ2xsnLkUMrVr14bdbs9Xa6ikMAwGl8uZr5C7dOkSUlNTiyTk0tLSrjobzLUIghOCIJTKLxhQyJFQ0DQN1apVQ5MmTcylkIiJiUGLFi1KbV8twzAQGxuXr+tgjDFs2bIFyJ6KKhQ4joNhePsd5ocgCBAEAYZBIUcilCDYERXlxKBBg4rkuhnPW3HgwAGkpl6CyyWUuv5ymqahcuXKiI+vaC7lat26dcjIyArZa2qzWXH27FmsXLnSXMpVfHw84uJi83XjpCQJzatHIp6iaLj//jZ44IEHzaVCu3z5EoYOHYJOnTrg3XcnYv/+P7NPn7y/t6RjjMFut6NZs2bmUq727NmNX3/9NWTjdm02K/73v//h5MkT5lKu7rrrLlitPFyuvLdESxIKORISdrsVcXGxePnlV1ChQry5XCAcx6F8+fL+/79z50688srLaNfuIYwYMQLbt++AJElF0s0ilFwuARznXbU+P6eemZmZmDFjOrKy3LDZChd0TqcTZ86cxSeffJSvFpnNZkPLli1L/GucGwo5EjIej4Q2bVpj+vQPUbZsWXM53/r06YM1a9bg/fc/QMOGDf37z549i5kzP0THju3Rr19frFmzBpqW9w/ujWAYDA0b3oZatWqZS7lasWIFpk2bBru94Hc47XY7NE3Dm2++iZ07d5rLubr99iaoX//WfAVjSUMhR0LGd+3IauXz1WK5mt69++C99ybjrrvuwqhRI/DNN2swY8ZMPPRQO/8F/PT0dHz//RqoqgqLJTAAfMselhSapqFSpUpo3DjRXLquCRPexieffApBsMNuz1+LThCcYIxh3LixmDNntrl8XS1btkTZsmUKPUHADWWeRZOQgvDNRLtw4ResbNmy/tllY2JimNVqDZp19lpbhQoV2P/938vs0qX0gOm8Nc1ghuGdYXfVqm9Yz55JLCYmhnXs2JGJosQ8HvnKwdl8s/HKsur/3zfaxx9/yiwWS9Dzvt4WFRXF3n9/GnO7RcZyPCfzjMBZWSJzuz3+GYTPn7/Innvu+aDHy8vmdDrZmjXfm55B6UMhRwpNkhRmGIx9/PEnAes6JCYmsk2bfmRLlnzNWre+n0VHRwd9kAAwjuNYrVq12KhRo9m2bTuYqur+D2lObrfHH2Zut8g2bdrMdu/+LSjgNI2xr79ezh5++BG2bt3/WEZGFmOMMVXVb2jYSZLC0tMzWfPmzYNeg7xsFouF9eyZxH788SeWleUNO5+cXwiMMZaWdpktX76C3Xtvi6DHyevWo0dPJklK0Otb2tBqXaRQJEmB1WrFhx9Ox8sv/5+/J/1dd92FTz+dhcaNGwEAsrJEbN26Bb/99jvOn0+Bonh/rkyZMrj55pvRsmVL1KhRA4zlbZFpWVZht9ugaXrA0oWSpEDTNDzySD9888034HkeDz3UDp06dULHjp1Qq1YN/0V0VVXhcOS9g26ozJgxE8OHP2venWeCIKBt24fQrFlz3HLLzahQoQJcrihkZKQjJeU8Dh8+iC1btuLHHzeZfzTPBEHAihWr0b59/gbzl0jm1CMkr3yniWPHjgs4Jb3vvvvYwYOHA47N2RrwtdQU5UrzQ1G0kLSyVFVnBw8eZo0bB6+IdfPNN7Nx495ie/b8zvbs+Z1lZrqLfSUqRdHYmTNn2T333BP07yvIxvM8i42NZeXLl2fR0dGM47igYwqy9evXj7ndVxbEKc0o5EiB+VaMSkrq5f9wtGvXnh05csx8qJ/b7WGiKPm3UARbTqIoscuXM9iOHb+wN954k910001BH+CKFSuyihUrsscff4KdPn32hnyQ16//gcXExAT920rCVq1aNfbHH/uZrpfyZbqyUciRQlEUjR0+fIS1bfsQ69KlKzt+/KT5kGKXMzj37/+LTZo0md13X8ugD3Pbtg+xS5cuB4WcJClF2sITRZmpqs5efXVM0L+pJGzTp89gzPQ6lmZ0TY7kiyQpMAwDLteVGUc0zcD58+fhcDgQFxcHq7Vk9EwSRQmCIMBiAdLTM7Fy5Up88cVC7Nu3DwAwd+5n6NChfcDPeNeryER0dDScTgdkuWiu26mqDlmWMHjwYCxe/JW5fMM888yzmDx5MgAuZCMtbjQKOZJniqKBMQaO46BpWkDQ+WpFEQiFJYoSeJ6Hw2FDauolHDt2DABwyy23QBAE/00OSVKgKAqGDHkKNpsdQ4cOxe23N4HT6YCq6lBVNeA5F5ZhAKdPn8ajj/bH5s2bzeVi17lzZ3z++QLExcXC45EQHZ33OedKNHPTjpBrSU4+w4YNe4Z9/vkCf5+10kaWVabr3i4XOU9Jfc/lq6+W+E/bYmNjWa9evdjs2XPZmTPnGMvuqhHKLhWGwdipU8msTZsHgk4bi3Pr2rUbO3/+YlBXlHBAIUeuS9cZO3v2HOvVqzcDwOLi4tjy5SuYqobmjmhJ4HZ7mKrqbNKkySw6OviGwL/+1YhNmTKV/fHHfnb5ckZIn7fv9e3fv3/Q7y2O7fHHn2ApKeeZpoXHjQYzCjlyXadOnWbt27cP+GBMmjSZaZrO3O6iu0Bf3NxuD7t4MY399NMWNmrUaFa+fPmgQKhatSqbP39ByDsW6zpjmZlZ7L33JrHY2Nig31sUW3x8RTZjxkcsK8sTtgHHKOTI9Rw+fIS1a3cl4HieZ//5z3iWmelmHk/4BJyP71TUMBj75ZddbNy4t1iTJk0CwmHFipXmH2OiKDFF0Qp1V9Y3ymP58hWsXr36QaEUyu3OO+9ia9euY4wxJkmq6V8SXijkyFUpisYOHPibtWx5petFdHQ0mzx5CtO0Kx/IcCWKkv/61PnzF9m0aR+wZs2asb59+7L09MyAbieiKLFLl9LZ8eMn/a9LQa/b+UJyz57fWZMmdwSFUyi2Vq1a+fsyhrI1WlJRyJEgiqKxQ4cOs8TERP8Hw+VysU8+mcVYjsH4kSDnYPfk5NPs5MlTTJaDWz5ffbWE1atXn40a9Rz77be9/teoMK/VH3/8yRo0aBgUUoXZ7r77bnb06LU7a4cjCjkSRJZVduLEKdapU2cGgJUvX4F98cWXjBXyQ1ua+cLOHHCyrLKLF9PYfffd5w+S+Ph41r//APbll4tZWtplxrJnUclPq8l37A8/bGSVKlUOCquCbDfdVJVt377D/KvCHj927Nix5m4lJLLxvAXR0TFo1aoV3G43Ro0ahb59+8DjkcOmg2h+2WxW8LwFPB/Y0dkwGM6dO4uNGzchOTkZmqZBFEX88cc+rFq1Chs3boCuG4iOjkZsbGz2hALWgMe4GpvNClGUUK9eHWiagQ0bfjAfki8cB0yaNAXdunWFKEp5+jeEC+oMTLLf9Lagzq6KokHTNNhsNmiadt2ZQSKVxyPD7RaxZ89uLFq0EEuXLoHH4wk4plWrVli4cBEqVaocMGvK9aiqjvT0dPTo0c2/eldBtG/fAYsXL4HTKURUwIFmBiYejwy73Y6UlBTwPB8wm67dbgXHcVBVlQIuF06nAzEx0XjooQcxe/YcrFu3Hi+//Arq17/Vf0yFCvEoW7ZsvqcRt9l4VKhQDiNGjMrXuq05xcbG4vnn/43Y2OiICzhQyEU2SVLgdDqwcuUK9OqVhKVLl8JisQQs9+d0OkI6lClc+Yaz6bqOFi3uxTvvTMC6df/DG2+8iRYt7kO/fv0QFeUq0Om+omho06YNmjS5w1zKk9at70eLFi0gSYq5FBHodDVCSZICQbDjyy8XY8SIZ5GamgqXy4nly1fhoYfaFsnK7ZFG1xl4nsPZsymIinLBarUV6AtDFCW4XALmzJmLwYOfNJdzxXEcvvpqCfr06WUuRQxqyUUgWVYhCHbMnPkxhgx5GqmpqQCAevXqo3LlSvk+pSJXx/McRFFChQoVYLPZCxRwyF7SUNMMdOnSFU2b3mku56pdu3Zo3759qViftqhQyEUYRdFgt9vw3/++h1GjRiAzMwPIPqVZvnwlGjVqBKs17xfGSe5cLgE2G1/oa5qKoqBixQro2TPJXLomi4VD//4DEBsbDbs98q7F+VDIRRCPR4Yoinjjjdfx2mtj/MvMtW/fHvPmzUPNmtXpNLWE8rbmdPTt2xc1atQwl6+qXr1b8eCDbSO6FQcKucgiCA6sX78e48ePh6qqAICePZMwa9Yc1KhR3Xw4KWFkWcXNN9fEk08ONpeuauTIUahcuWJEt+JAIRdZVFVDs2bN0blzFwBAUlISPvnkE1StWsV8KLnBZFmFLHu/iHyiogQYBkP37j2QkJAQUDNr2PA2dO/eDZqWvTRZDoqilaiFt4sahVwEsdutqFq1Ct5/fxpmzJiJqVOnoWzZcnSKWsKoqoZ9+/bh5MmTQaeasqygQYNb/V9U19K1a1dUrlzJ32L3kWUVJ04cx8mTJ4IeO1xRyIUxVdXBmPdanI/FAlSrVg3Dhg1DpUqVwPOUcCWJxyPDarVi6dKlmDDhbf8+H6fTAY7jMHToUFSsWDHHT15Rs2ZNDBw4CJqmB9zwkCQFkiThpZdewI4d2yPmNJZCLkwxBpw8eRJr164Dst/gPna7FR6PFDFv8tKE4zh4PBL+/vsvfP31Uhw8eBAOR2AHYllW0KhRY3Ts2Clgv0+/fg+jTp1bgk53BcGOHTt2YOXKVTh61LvORc6O3+GKQi5MHTt2HIMGDULv3kn46KOZMAwjoEVQ0D5bpGjxPI/Lly/j3LmzyMrKwjffrIbF4u1v5+N0OmC1WtCrVy9YLIEf4bi4OHTv3gOG4b2G5+PxyGAMWLlyBQDgxIkTkGU16OfDUfg/wwji+yAcOPA3nnxyEH766Ue43W5MmTIJp06dhN1esLGPpPhYLBZIkgfp6d7+ix9//BEOHPgLDkdgPztJUvDAAw+gV6/eAfv79OmHJk2aQFECh3AJggM7d/6CJUsWAwAuXrwAj8dDIUdKD9/Qn717/8DAgY/jxx83AQDKlCmDl19+FdWr14AsR+bYxdKGMYAx713RU6dOYcWKFf7REz6CYIcgOPDYY4+B572dt+Pi4jBw4EBYrXzAGFmPR4auG1iw4HOkpaUBALxzSfoPCWsUcmHC5RKwY8dOPPJIP/zyyy8AgJiYGHz44QwMH/4sOI6jU9RSgDEGp9OJuLgy/n3Lln2NixfTYLUGXkOVJAUtW7bCv//9Apo2bYrXXnsdTZo0gSQFdg+x2204evQovvvuO/+++PiKcLkEGEZwF5NwQyFXyomiBFXV8e2332HAgP44cOAAAKBSpUqYNWs2+vd/xD8Yn5R8uq6jTJkyqFWrln/fb7/9hs8+mwu73TuRpo8g2GGz2TB+/NvYsGEjRo9+DoZhBNxR9S6sbcEXXyzEiRMn/Pvr1KkDh8NOIUdKPi67k9uuXbtw5MgRAECVKlUwc+ZH6Nu3DwVcKaPrOpxOAXXr1g3Yv3DhQpw9mwK7PfBvKQh2qKoKh0OAoninzsrJ6RRw6NBhzJ8/37/ParX6Hz8SWvcUcqWc0+mArusYPfo5DBr0JKpVq4a5c+ehZ88eET1deWnlC51777034GbDH3/sw+LFi2G1Bs73h+yfcTiCp3GSJAUcB8ydOwfHjnm7jCD7SzAx8farjoYIS+ZFH0jJ53Z7gtb3VFWdJSefYbt27cn3oimkZPF4ZJaVJfoXEvJtlSpVYhs3/ug/Jje+BYe++moxi4mJCXicMWNeY7oeGcsRMsYYTZpZyvh6xCP71CZnS02WVVitVsiyHPStTkqfDRs2oUePbsjMzPTvq1OnDiZPnoIOHTrCarVAllX/dTWO42CxWGC3W6GqBpYuXYLnnx+NlJQU/8/Xr18fmzZtRoUKFWC1RsaJXGQ8yzAhyypsNhs+/fRTTJv2PiwWLqCDr8NhA8/TXdRw4PHIuP/++zFkyNCA/YcPH0bv3r3w3HOjsW/fn1AUGTzP+6/VZWVl4fff9+G550bhiSceCwg4QRDw2muvo1KlikH96MIZteRKCUXRYLVaMW3a+3j55f+Dqqp4993/4rnnngtaZYuEB1XV4XZnYdSoUZg//3NzGZUqVcYdd9yBSpUqwel0IisrC8nJp7B3717/bM8+HMdh4sSJeOGFFyFJctANirBmPn8lJY9vUeMJE95lPM/7r6106dKVZWRkXff6DCmdMjPdTNMMlpp6iQ0bNizgulp+tri4Mmzy5MlMltWIXBycQq6Ek2WVKYrGxo0bx6xWq/+N26lTZ3bkyLGgFd1J+FFVnXk8Mps79zN2660NgkIst+3ee1uw9es3MMO4cjMi0tDpagnmu6j8+uuvYfLkSf79jzzyCKZMeR+VKsUHHE/ClyyrcDhsOHToH6xevQrr1q3Dr7/+gvT0dPOhqFOnDhITb0eHDh3w0EPtULVqAjyeCDtFzYFCroSSJAWqqmLMmFcwffp0//7HHnsc06d/iJiYaJrsMsKIogS73Z59V1XDjh3b8Pvvv0MURRiGAavViho1auCOO5qiTp1bAP/CRZE9pRaFXAklSQoMw8CLL76AmTNnAACGDBmKKVOm+t/oJHLl1jLTdUbdiHKgkCvBZFmFoih4/fXXYLFY8J//vA2HgwKOBMo5AoKCLRiFXAniuwaX8xtallVomgaO42C1WiP+1IOQ/KImQQmhaQbcbjcMwwiYttrbwZf392QnhOQPhVwJ8c8/h/H444/hnXcmwDCMgDUZvBMk0kB7QgqCTldLgAMH/sKgQQOxc+dOAMDUqe9j5MhRkCTvbL+EkIKjltwN4rtY/Pvv+9CrVy9/wEVFRSE+Ph703UNIaFDI3QAej/f2/s8/b0G/fn3w11/e2XwTEhIwf/5C9O3bD7KsUCuOkBCgkCtmoijBYrFgzZrvMWjQQBw8eBAAULVqVcyYMRM9e3aHqmpwua7eB4oQkj90Ta6Y6TrDvn170blzJ5w5cwYAUL16dcyZMxcPPvhArp08CSH5Ry25YqaqKmrWrIXHHnsMAFCrVi0sWLAIDz74AERRooAjJMSoJXcDKIoGSZIwdepk3HPPvWjb9kH/uqmEkNCikCtiHo8Mh8MBRQlcNcvj8c7oynEcbDbv4sCEkNCj09UipCgaDMPAhg0bIMsyZFmD2y0COVbZUtUroxsIIaFHIVdEVFUHYwzvvz8FPXt2x5gxr2bPx2/zH+N0OugUlZAiRqerRUBRNAAcJkx4G+PHvwVd1wEAX375Ffr06UsjGQgpRtSSCzFNM8BxwJgxr2DcuDf9ATdgwKNo0aIFLTpDSDGjkAuRrCwRhgGIoogXX3wRkya9568NHToMH344AwkJVeBwXDldJYQUPQq5ELHZbEhJOYeXXnoR06a9DwCwWCwYPXo0pkyZiujoaHg8VyY3JIQUD7omFyKMAStWrEBSUk//vldeeRVvvPEmrFYrzeZLyA1Cn7wQkWUZDz7YFq+//gZcrii8+eY4jB07DjzPU8ARcgNRS64QzKMUFEWDKIrYuXMnmjdvDkEQaDZfQm4wCrkC0jQDFosFqupdD9NHkrwjG3z/JYTcWBF3HuXxyNA0w7zbT9dZwNTjZr7JLrdt24Zx48YiPT0dqurtJoLsqcpz/pcQcmNFTEvO45EhCA5omo4zZ87g3LmzuHgxFZmZGTAMA9HRMShbtiwqV66MKlWqICrKGdQa852ebt++EwMG9MfRo0cwbNgzePvtt+F0uijYCCmBIiLkdN37FH/99Rd89NFH+O23PTh37hzS0lKh61dadWXKlEGlSpVRr15dPPXUEDz0UFvY7TZ/683lErBhwyYMHvwkjh8/BgCoXLky1q/fgAYNGsASce1iQkoBFsbcbg9jjLFDh/5hI0aMZHFxcQxAnjar1cp69+7DtmzZxnTd+3jffbeGVa9e3X9MtWrV2MqVq5gsq/7fRQgpWcK2Jec7tdy0aTNGjhyOP//803xInlSoUAEzZsxEVFQUBg0ahPPnUwAAt9xyC+bM+QytWt1Hs/kSUoKFbcgBwPffr8VTTw3G6dOnzaV8iYmJgd1uR2pqKgCgYcOG+PTTWbjnnuYUcAUkSYp/0WyO48xlMMbAGGAYOnRdp9eYFFjYhtzBg4fRvXs3/P33X+ZSgVksFtx555348MMZaNr0jqB+cuTaJEmB3W73X7d0uz1IT0/HxYsXkZWVmT3fngLGDDidLsTGxiImJgZlypRBmTJl/BOLapoBVVUp9EiehV3ISZIKxnQMGTIECxbMN5cLpXz58li16hvce29zc4lchSQp/iFtbrcHJ04cx6lTyTh58gR+/PFH7NixHefOnYOue+feY8wAY94vE57nwfM86tSpg1atWqNx48aoVetm1KxZE1WqVIHNxkNRNGiaRl80JFdhF3KMAd9//z169OgORbl2f7eCsNvtmDx5CoYPf9ZcIjn4ut6oqo4TJ05g2bKvsWHDBhw58g+Sk5ML/HeJjY1FjRo1ULduPfTr1w8PPPAgypSJg2Ew8HzwKS8hCLeQ866nYMfjjz+GhQsXmsshUadOXaxduxY1atQAz1OfkZx84SbLCtatW4dvv/0Ga9euw6lTJ82HFprFYsE999yDTp06o2fPJNStWxuq6p1Onlp2JKewCjnDYNiz5zd07NgeFy5cMJdDZsGCRRgw4BG6JpeDrgO6rmH79u2YOXMGVq9eBUkqnqml6tSpg+HDRyIpKQlVqyYEdeImkS2smiIWC4dt27YUacABwL59e3MdGhZJPB4ZAJCcnIzRo0ehW7cuWLJkcbEFHAAcPnwYo0aNQFJSDyxdugw2m83fAZyQsAk535jUkydPmUshd+TIP9B146pdHyJFVpYIVTUgCA4sXboM3bp1wUcfzUR6err50GKzc+dOPPpof4waNQInT3pPkX2jVUjkCpuQ4zgOqqoVy4fs4sVUMBbZLTmXywVRdGP8+PF47LEB2Lv3d/MhN4Qsy5gxYwYefbQ/fvnlVzidAjyegt3oIOEhbELOi0HXNfPOkJNl7ylapLbkGANSUlLwxBOP4Y03Xi/WU9O82rp1K7p27YLly5fD6fROfUUiU1iFnMVigSA4zbtDzuXy/o4wumeTL//88w8GDHgEK1euNJdKlJSUFAwaNBCffz7fP8cfiTxhE3KGYcBmsyI+Pt5cCrkqVaqA57098CNFVpYHAHDqVDKefPJJbNy40XxIiZSRkYHhw4fj009nQxDs/hslJHKETci5XAIsFg516tQp8tPIW29tCJ7nI6olJwgOXLiQiuHDh+Pnn38yl0u0rKxMvPLKy1i1ajWcTgdEUaIbEhEkbEIOAFRVR8uWrVC3bl1zKWSioqJwzz33gOO8wRoJZFkFxwGvvTYGq1evMpdLhbS0VAwf/ix++WUXXC4hYv52JMxCzmbjUb36TejWrbu5FDKNGjVGYmKieXfY8nhkWK1WTJ8+HbNnzzKXS5Xk5GS8+OK/cfZsCs6eTaG+jhGCHzt27FjzztLMMBgqVKiA5cuXQRRFc7nQsrIywXEcmjVrDo6zwGIp2lPjG81ms2Lr1m14+unBJfIuan6dOHECsizj559/Rvv27aEoKqzWyLq+GnFyzqAZDkRRYppmsHfeeTdott9Qbv36PcxOnUpmLMcMxOFGUTR29mwKa926ddDzL82by+ViLpeLrVy52vyUSRgKu5BjjDFZVllGRiZLSkoKeoMXdLv77rtZp06dg/Zt2bKNMcaYxyOb/xmlmi+4J078b9BrURSbw+FgMTExLDo6mlmt1qB6UWy3396EnT59limKZn76JIyE1QD9nHSd4cyZ0xgy5Gl8//335nK+JCYmYt68z1G7dh28884ETJkyGR6Pt0vFTTfdhLffnoC+fftB1w24XOExmaOuG0hOTkbHjh1w4MABc7nQoqNjcNdddyEx8XbUqVMbVapURdmyZaBpOi5cOI8TJ07gwIED2LlzB/76K3QTn5pNm/YBRo4cYd5Nwok59cLNmTPn2PDhI5jNZgv6Js/L1qtXL/b33wcZY4wpis4Mg7F58z5nN91UzX8Mz/NsypSpTFG0sDh1FUWJ6brBXn/9jaDXo7Bbo0aN2NtvT2CbNm1mly9nBPxeXfduOR0+fITNnTuP9eyZxBwOR9DjFXarW7cuO3z4H6brRuAvJmEj7ENOVXWm64wtWrSI3X13M8ZxXNAb/WpbnTp12MSJ7zFJUv0fvMxMkYmixBhjbPv2neyOO+5gyF7Za/78BWHzQVEUjR0/fpLVq1cv6HUp6BYTE8OGDBnGkpNP+3+PLKssK0u85uZ2e5imeV9TVdXZihUr2W233Rb02IXd/vOf8cwwwvfaaqQL29PVnHyLzZw7l4K9e/dh/fr/YfXq1bh48QIkSQJjgN1ug8vlwl133Y1HH300e7rtW6DrGhwOW8Dj+eaRO3kyGS+99AJq1boZb731FjQtfBZcmTNnLp5++ikYRuG7WVSqVAnTpk1Hr15JYIyDosj56kjNcVz2kD07jh8/iZdeegFLly41H1ZgTZo0wfr1GxAVFQ2Hw2ouk1IuIkLOR1V12Gw8NI3h8uVLOHnyJM6fT4GuGyhTpgyqVq2KSpUqwel0wDAAScp9UkxdZ8jIyIDVaoXNZguYqFGSFDgcdmia93eWFrKsQpZlJCX1xA8/rDeX86169Rr49NNZaNeuLWRZhaYVbgKFqCgnLl1Kx7hx4zBt2lRzuUBsNjsWLlyEPn16mUskDERUyPl4PDIsFh5WKw+LhQPHAYYB6Lp3+bv8zCoryyoYYwE/I8sqMjIysHr1KrRq1Rq1a99cqmYR3rhxEzp16ljofnGVK1fG3LmfoUOH9vB45JC0CgFAEJyQJA+GDRuCBQsWmMsFkpSUhEWLvgBjyNffn5R8YTXiIa+cTgccDit43htwAGCxeEdM5PcN7nAEt+AYM/D++1MxePCTePzxx7B79x64XEKJHxwuihIMg+HXX3cVOuAA4I03xoY84ABAkjxwOp2YOPE9tGjRwlwukN27d+PIkaOw2/P39yclX0SGXFGy2Ww4efIkZs+eDQDYtm0revfuhS+//ApOpwOqqpt/pMSwWCxQFBW7d/9qLuVbt27d0b9/fyiKFtKA8/F4PEhIqIRXXx0Dp7Pw02udOXMGJ04c868LS8IH/UlDTFEU3HRTNYwbNw5VqlQBABw7dgyDBz+J996bDFmWUQSf+ZCwWCxwu93Yu3evuZQvZcuWxcsvv4zY2Gioqmouh4wkKWjbti0ef3yguZRviqJg//4DMAxGM5SEGQq5EHM6HeA4DkOHDsGiRV/ittv+BQAQRREvvfQCnn32GaSklMzB4VYrj7179+LUqcKtk9GqVSskJiZCkoou4ADvNVSrlUfv3r0QExNjLufbTz9thqKosFBzLqzQX7MIOJ0OeDwyWrduieXLV6B37z7+2vz5n6Nnzx7466+/oGkl69TVYuGwa9ev/tEcBcFxHLp37wFBcBTTVPQqbr+9CerVq2cu5dtffx2AKIpFPh8hKV4UckXE11+udu1bMGfOXLzyyquw2bz97STJA4fDka++YkXNd4p29OhRcylfEhKqoE2bB4qtpappGsqWjcP997cxl/ItLe0STp06RbOShBkKuSLGcYDT6cR//jMeM2d+jGbNmmPy5KmoW7c2bLaS0/GU4zgoiobU1FRzKV+aNGmCMmXKQNeLr5VqGEDXrl1htRbu9RRFD06ePAmep49FOKG/ZjGwWi1QVRWPPfYYli1bjnvuuSfo4ramGTf0hoT3zqriX4msoOrWrQOn01kkd1SvxTAMVK9eA+XKlTeX8kVRZFy+fNm8m5RyFHLFRBDs0DQN8fHxMAwjoGOwrjPs3/8ntm3blj3S4sasKqXrOlS1cNfR4uLKFPuFe8YYrNbCL2JkGAYyMjLMu0kpV7zvxgjncgmw2fiAgFNVHWlpaXjhhRfQs2d3LFy4AIJgh6JoyMoK/czGuTEMA4ZRuJC7EYtu+0IuKsplLuWbKLrNu0gpRyF3A3mHl1kwffoH+OGH9bhw4QKGDh2CV18dA0mSQvKhzQ+LxQKLpXAX3RWlcCFZEBzHwTCMQrdCkf0akPBCf9EbiDEGwzDQsmUrNG9+D5Ddk/+ddyZg2LChOHr0GJDjzmdR43nefwe4oC5cOA9VVYu1GwbHcdB1HWlphbtpAgAuV/F+sZCiRyF3A/lOXx98sA2WLv0ajz76uL/2xReLkJTUE1u3boPLJRR50HknGXAUuvV48OBBeDyeYm0RWSwWpKSk4Ny5c+ZSvlitVpQrV868m5RyxfdOJLlKSEjAjBkzMH782/6xmHv3/o7evXth9uy5sFqtRRp0gmCH1cojLi7OXMqXP//8E+fPny/WbhgWC/D9998V+s6w0+lE5coJN/QuNwm94nsnklxZLIAgCBgz5lXMmjUbtWrVAgCcPXsWu3b9Co7jiuUU8JZbapt35UtaWir+97+1xRZyVqsVWVki1qxZYy7lm8vlQo0aNYq1jx8pesXzTiR5YrPxkCQF/fs/gmXLlqNx48Zo0+YBvPHGm0COURRFhTHg9tubFHpWj9WrVyMjI6vQnXPzwuGw4bfffgvJYjs1atREfHw8hVyYoZArYQTBDlGUkJiYiBUrVmHWrNmoXLlywOzCoihB0wzIcmgHwKuqhkaNGiEhIcFcypft27dj27atQdPGh5rFwsMwGJYt+zoknXhbtGiRPdyOzlfDCYVcCeRyCeA473KH1apVC5jjTBQlWCwWHDiwH263O6RjRA3DQExMDP71r0bmUr5kZWVh4sSJSE1NLdJJKJ1OOzZu3ITZs2eZSwXStGlTWK0WlKAhxSQEKORKMJuND1ofQhAE7Nu3F716JWHMmFeRkZERsg8lYwx2ux133nmnuZRvP/64CZ9/Ph82G18kd1qdTifOn7+I8eP/A7e78B14K1aMR+3atcGY90uGhI/Qv/tIkVEUDadPn8bIkSNw+PBhfPzxR3j00f7Yt+8PILtzcWE4nQ7wPIfExERYrYU/1XzrrXFYsuRrOJ2OkAad0+mEJEl46aWXsHnzj+Zygdx6awPUrl0nJB2KSckSunceKRYWiwX169/qH5mwZs0a9OrVE6tXfwOHo/DTqyuKhubN78Fdd91lLuVbeno6Ro4cjuXLV8LpdBS6ozHHcXC5nMjIyMAbb7yOzz//zHxIgXAchy5duqFs2TjY7UV/s4QUL37s2LFjzTtJycTzFgiCE127dkW5cuWxZcvPUBQFaWlp+Oab1eA4Ds2bNwfAwWIpWHcTnrfA6RSQkZGJdevWmsv55na7sW7dWiQkVEHjxv+C3e4o0N1LnufhdDpw+vQZjB49Cp9++on5kAKrXbs2Jk2aDKfTVWxdX0gxMq82TUo+WVYZY4ytX/8DS0xMDFgNvm/ffuzAgb/9xxSEqurs778PsRo1agStNl/QzW63s4cffpj9/fdBxhhjhsGYomjM7fawrCzxqpvHIzNNMxhjjGmawZYsWcqaNGkS9NiF3UaMGMk0zWCiKJleCRIOKORKKbfbwxhj7ODBw6xnzyT/B5bnefb992uZrpt/Iu9EUWKqqrPnn/93UCAUdqtZswZ75ZVX2ObNP7ELF9LMvzqAqurs8OEjbOHCRSwpKYk5HI6gxyvsVqZMGbZ16zZmeLOUhKGIXFw6nDAGZGZmYcKEtzFnzhy8+OKLeP7556GqWqE6DxsGw6FDh9ChQ3scP37cXC606OgYNG16B5o2vRO1a9dGQkIC4uLKQNM0XLx4ESdPnsCBAwewdetWHD58yPzjIfPvf7+ASZPeK1WLf5P8oZALA6qqQ5Zl/Pbbb2jYsCGioqICOuJKkpI9w0jep1HyfejffXciXnnlZXM55ARB8M8onJWVVaDrdvmVkJCAdevWo0GDBuD5gl3DJCUfhVyYkCQFdrsdiqJA03RER3uHZsmyiszMTIiiiGrVboIkyXlu4amqjtTUi+jZsye2b99mLpdavpsLkydPxciRI+HxUCsunNGtpDAhCPbsQf52f8CJogS73YY5c2ahW7cu+Pnnn+F0OvI8vbrNxqNy5Up4++0JiI4u/LqmJUWPHj3Ro0dPPP30EKiqRgEX7swX6Uh4cLs9TNMMtmDBIuZ0OhkAVq1aNfbpp7P8dzbzQhQlpmkGe+edd4Mu2pfGrX79W9n+/X+x/fv/KtTNGVJ6UEsurDHYbDaUL+9dxerUqVN49tln8Nprr+V5LQOn09uv7fnn/41HHulvLpcqZcuWxdSpU9GgQX00aFA/YEwwCWPm1CPhRdcZ++WXXaxZs+YBLZpevXqxI0eOMsYYE0Vvd5Tc6LrBTpw4xe69996g1lFp2KKjo9ncuZ8xlt3K9XXBIeGPQi7M+T7Mp06dZoMGPRnwwb/99tvZt9+uYR6PdN0PfWamyBhjbP/+Aywx8fagECnJm81mY1OmTGWMMebxyKZnRsIdhVyE0HXvB3zChHdZdHS0PwDuv/9+dvFiWr5GSPz++17WpMkdQWFSEjdBENjUqe8zw2BMkhTzUyERgEIugvg+5KtXf8MqVarEypUrx9at+x/TNP26LTmzf/45yh588MGgUClJW9myZdmCBYuYYVALLpJRP7kII0kKHA47tmzZirS0VHTo0AmapgZ0o5AkBYyxXPvTMQZcvHgR7733Ht5/fypUNbSzFBdWkyZ3YPLkyWjVqhVkWYEgFN3knaRko5CLUIbhXTzHPJxJkhQYhu6fLSS3Kcw1zQDPWzB//gK89dZYHD161HzIDdG9ew9MnPhf1K1bO+j5kchDN9EjlK/7RM4AUBQNoijihRdewAcffAAA0PVrfwdarRbIsoLHH38Uy5evQOvW95sPKVY8z2P06NGYN28e6tTxrjpGAUfomhxhLPuuY1aWyEaOHOm/pjVixAiWmnqJMcaY2+29u3o1vut5586dZ088MTDo2lhxbDabjU2b9gFTFI2pKvXyJVdQS44A2TMOZ2Vl4dixKzOOTJ8+HY8+OgB//nkALpfzmsPBfK2lihXjMW3adAwYMMB8SJFyuVyYNGkKRo4cAcYYrFZ6W5MczKlHIpfHI7OUlAts2LBnmMVi8beS6tatx9au/Z//mNzoOmPnzqWw1q1bB7W2imLjeZ5NmPAOYznuHhOSE4UcCaBpBnO7PezDD2ewuLg4f5hUqFCBvf/+NOZ2e/I0g+7+/X+xevXqBYVSqLeBAwcxRdHy1c+PRBYKORLEFxirVq1m9evfGhAqvn5nufWr89W++OIrJghCUDCFamvY8DZ26NBhGmhPckUXL0gQu90Kj0dG165dsHjxEjz4YFsAQLNmzdCsWTNoWu7TE7lcAjweGQ8/3BcDBw4yl0PC4XBg7NhxqFOnNg20J7mifnLkus6dO48pUyahY8dOaN26FbKyPP4563LDGLBr1y489NBDuHz5krlcKO3bd8CSJUtht9tz7ctHCIUcuS5F0WC1WqHrer6mUPd4ZNjtNowZMwYTJ75rLhdYTEwMFi9egg4d2ptLhAShhj65LrvdCkmS8hVwyJ6LzmKxYPDgwbj55lvM5QLr1Kkz2rZte80uLYTkRCFH8iS3a3C5kSQZtWrVQrt27cylAuE4Dr1794bVytN4VJInFHKkSDmdDnCcBQMHDkL58hXM5Xxr06YNHnjgAchyyZoQgJRcFHKkyMmyjCZNmqBv377mUr7Y7XaMHDkKcXGxdLOB5BmFHClyTqcDPM8hKakXoqKizOU8a9SoEZo3bw5V1cwlQq6JQo4UC0lS0Lx5swJfm+M4Do8/PhDx8RVgs1nNZUKuiUKOhJwoShBFKWCfINjhdAp49tnhiI6ODqjlRZMmTdC/f38oCrXiSP5QyJGQEkUJPM/DYrEEBZ0sq2ja9E40a9Y8YH9e9O7dB2XLxkHTKORI/lDIkZARRQlOp4B58z7DsmXL4XQGdjvRdR2xsdF4+OFHwPN573NXq1YtdO/eA4bBCtyVhUQuCjkSMoLgwJ9/7serr76KCRPGIyXlfMDppcslQFE09OqVhFatWgX8bG6eeGIg6tWrA4uFC9gvihJ1CCbXRSFHQsLjkcEYwyeffIK0tFQcOLAfmzZthN0eeJNAURTExsagT58+AfuvpWrVqkhK6gVNMwL2u93eU2FFof5yJHcUciQkHA47Dh/+B999941/31dffQmPJ7C1FR3tgqrqaNeuPerWrefffy09evREvXp1g1YDc7kc2L17N2bPngVkhywhV0MhR0LCYuGwadNGHD9+Zfr07777DqtXrw4afqWqKmrWrIGRI0eC4wJPQXOqXLkynnhiEKxWPmB5RI9HhqbpmDNnNqZOnYzU1EuwWPJ+jY9EFgo5UmiSpCArS8SqVSsD9uu6ji+//BKiKAUMw3K5BBgGQ8eOHVG7dp2An8mpc+cuSExsHNRKczjsOHDgL3z77WokJydj165d+Z48gEQOCjlSaDzP4/z58zh48KC5hM2bf8SePbthtwcOw5IkGTVq1ETnzp0D9vvYbDb07t0HFgsXtMi1xcJh2bJlSE1NAwD8/PNPQTclCPGhkCOFZrFYcOHCeWRluc0lXL58GdOnT4eqqgEtMpdLAGMMgwc/hcqVEwJ+BgC6d++Oli1bQpYD757quoG//z6E+fPn+fedPHkSum4EtfgIAYUcCQWO4+B2i0GB5LN27ff45Zdfg1pkiqLg1lvrBw3ct9vtGDz4aQiCPeB6nihKsFgsWLz4K5w4ccK/3+12Q5aVXK/vkchFIUdCwjvB9NUnmc7IyMCyZV/DMFhAa8vpdIAxoH//Aahatap/f5cuXdCsWfOg6ZTsdhsuXEjFsmVfB+zXNA26blDIkauikCMh4XDYYLVe++L/ggXz8eef++FwBN5plSQJiYmJ+Prr5Rg6dBjGj38bM2d+BKdTCJpOyWrlsXDhfPzxxx8B++12O2w2PjtoCQlEIUcKzTAMxMbGQRCuvbhNamoqPv98HjiOCxjT6nIJUFUVd955Jz76aCbGjHkVZcqUDbpbqmkGzpw5h7lz5wTsB5A9v5wdhhHYYZgQUMiRUDAMA/HxFREXF2cuBVixYgX++ecIXC4BWVke/36XSwDPe8NPFKWgURKiKMFqtWDdunXYv39/QA0A6te/FRzH0bhWclUUcqTQDMNA2bLlcPfdzcylAMeOHcXEie9CkmQIQuBNCGSH3dWCyuUSsHfvPkyY8La5hNjYODzwwIPQdWrFkaujkCOF5r0LakO3bt1gteY+oeWcObPx3//+F4wZ0HUWNB1TTr6bFMeOncCoUSPxzz+HzYegefNmqFu3HlRVN5cIASjkSKhomo67774biYmJ5lKQcePG4rnnnkNKSkp2fznvNTdF0aCqOnyX1pxOB376aQv69euDzZs3mx8GANClS1dERQkwDAo5cnW0uDQJCVGU4HIJeOedd/Hqq6+Yy1fVsGFDjBo1Gk2b3on4+HgIggBN05Ceno7k5GR8++23mDNnFjIzM80/CgBo0KABvv12DapXrwaep+9rcnUUciRkVFVHaupF9OzZA9u3bzeXr6lKlSpISKiCqKgoqKqK1NSLSE5OhiiK5kP9rFYrPvtsHgYM6G8uERKAQo6E3MaNm9C1axe43cHDvEKlX7+HMXv2HFit1qD+dITkRG18ElIej4w2be7HxInvweVymcsh0aLFfXjnnXev2mGYEDMKORJSTqcDkqTgmWeGYdy4t+B0XruDcEG0aNECn302DzVrVqeZR0ieUMiRkBMEOxRFxXPPPY9PPvkUNWrUNB9SIH369MWXXy5G7do3m0uEXBNdkyNFRpIUCIIdf/yxH2+/PR6rV6+Cx3NlpENeNWzYEE899TQGD34KDocAq5VacCTvKORIkRJFCYIgQBRFbN26BbNmzcLatd9f96aE3W5H48aNMXDgk+jcuROqVbsJiqIFDfki5Hoo5Eix8LXqsrJE7N//J3bt2oWjR4/i0qU0XLyYClmWEB0dg4oVK+Lmm2/GHXc0xW233YaKFStA1xl4nlpvpGAo5EixkmUVNpsNV5v6jTGA47ybYXjXiFBV9arjWQnJKwo5csNca9wqhRoJJQo5QkhYoy4khJCwRiFHCAlrFHKEkLBGIUcICWsUcoSQsEYhRwgJaxRyhJCwRiFHCAlrFHKEkLBGIUcICWsUcoSQsEYhRwgJaxRyhJCwRiFHCAlrFHKEkLBGIUcICWsUcoSQsEYhRwgJaxRyhJCwRiFHCAlr/w+vSAA6ameaEwAAAABJRU5ErkJggg==;" vertex="1" parent="1">
          <mxGeometry x="140" y="336" width="80.62" height="68" as="geometry" />
        </mxCell>
        <mxCell id="enXNgLlltsmvFPIuJAf--21" value="Stuffing, Stripping, internal route Guide" style="text;html=1;whiteSpace=wrap;strokeColor=none;fillColor=none;align=center;verticalAlign=middle;rounded=0;" vertex="1" parent="1">
          <mxGeometry x="220.31" y="180" width="60" height="100" as="geometry" />
        </mxCell>
        <mxCell id="enXNgLlltsmvFPIuJAf--22" value="Weighing Bridge" style="text;html=1;whiteSpace=wrap;strokeColor=none;fillColor=none;align=center;verticalAlign=middle;rounded=0;" vertex="1" parent="1">
          <mxGeometry x="320" y="270" width="60" height="30" as="geometry" />
        </mxCell>
        <mxCell id="enXNgLlltsmvFPIuJAf--23" value="CCTV plate OCR" style="text;html=1;whiteSpace=wrap;strokeColor=none;fillColor=none;align=center;verticalAlign=middle;rounded=0;" vertex="1" parent="1">
          <mxGeometry x="420" y="260" width="60" height="30" as="geometry" />
        </mxCell>
        <mxCell id="enXNgLlltsmvFPIuJAf--24" value="auto Gate Open based on RFID" style="text;html=1;whiteSpace=wrap;strokeColor=none;fillColor=none;align=center;verticalAlign=middle;rounded=0;" vertex="1" parent="1">
          <mxGeometry x="480" y="220" width="60" height="60" as="geometry" />
        </mxCell>
        <mxCell id="enXNgLlltsmvFPIuJAf--26" value="" style="shape=image;verticalLabelPosition=bottom;labelBackgroundColor=default;verticalAlign=top;aspect=fixed;imageAspect=0;image=data:image/png,iVBORw0KGgoAAAANSUhEUgAAAV0AAAFcCAYAAABr1G0SAAAAAXNSR0IArs4c6QAAAARnQU1BAACxjwv8YQUAAAAJcEhZcwAAFiUAABYlAUlSJPAAAB+2SURBVHhe7d1vrCV1nefxT/07/+69EJXoSAYbcA0MJsKIxg4y6OPZBz5xhIm7GZPR2WQnIK2xJZPFFlEGIk0cHdcYTNxMDIEwT3ae+GhxJziyDRF3GJkBgRVGiEHASbrvPf/qz28fVP2q69btZu75c3+n7qn3K/ml7z1dXaf+fupXdfr8vp4xxggA4IRffwEAcHAIXQBwiNAFAIcIXQBwiNAFAIcIXQBwiNAFAIcIXQBwiNAFAIcIXQBwiNAFAIcIXQBwiNAFAIcIXQBwiNAFAIcIXQBwiNAFAIcIXQBwiNAFAIcIXQBwiNAFAIcIXQBwiNAFAIcIXQBwiNAFAIcIXQBwiNAFAIcIXQBwiNAFAIcIXQBwiNAFAIcIXQBwiNAFAIcIXQBwiNAFAIcIXQBwiNAFAIcIXQBwiNAFAIcIXQBwiNAFAIcIXQBwiNAFAIcIXQBwiNAFAIcIXQBwiNAFAIcIXQBwiNAFAIcIXQBwiNAFAIcIXQBwiNAFAIcIXQBwiNAFAIcIXQBwiNAFAIcIXQBwiNAFAIcIXQBwiNAFAIcIXQBwiNAFAIcIXQBwqBWha4ypv9QqWZbVX4JjxhgZY5Smaf2vWiXLsnJbtJVnWrD2xhjt7Ozo2WeflTFGQRDI930Zk0pan9U3RgqCUMZI4/FYW1tbOnLkiPr9vny/FdfXxkrTVL7vK8syjcdj/eIXv5AxqTzPk+fVp14vaWoUBKEuv/xybW5uyhijLMsURVF90lZoRehK0qlTp/SVr3xF29vb8jxPQRAUgbs+q5/vSk9pmilNU73nPe/Rl7/8ZR05cqQ+KRwzxsgr0vWVV17R7bffrueee1ZRFJWvr6vJZKp+f6ATJ07o+uuvL3u5677e59Oa0H300Ud12223lbd3eY/XW8PbHE++HyjLMr3zne/UN77xDV1yySWtPcCbJMsy+b6vV155RTfffLNefPH/qdvt1idbO8ZInU5XX/3qV3XDDTeUvX61NHhbc8/p+7663a48z1MYhup2u4qijqIoWpvW6XTk+4GMMUqSpOzRt/HAbpIsy+88qkHT6azXsXe+lh+T/q7nuPb3tmpN6J59dmYURVFxEKzXB0zGGEVRqCDIe7qdTqc+CVbA93153tm7KvthUhuY4sPDfr+/q1efn4/t7Ay0JnTD0FeaJvJ9T2kar13gWvbxiQ3etpzcTdfmkAmCQEmS1F9urdaEbvX2RpJ8f/1PAAIXaJ7WhC4ANAGhCwAOEboA4BChCwAOEboA4BChCwAOEboA4BChCwAOEboA4BChCwAOEboA4BChCwAOEboLyMdJTZSmaWMbmqm+n5rWqKt3cAjdBYRhqF4vHye002lGy5elo06no263y0hjDdXt2n3VvNbtdhWGIUUkD0hryvWcOvWYjh8/riRJivpo80vTVJ1OR3/6p5/Re9/7Xo3HYxmTyfNWfw2zxQ+zLNOFF16oI0eOaGtrqz4ZHLMBFgSBtre39dxzz2k4HDauYKjnGYVhqGeeeUb333+/TFFEcpHlTJJUvV5fd911l44ePVqGeFvHFyZ055AkiQaDgf76r/+7rrzyyvpfN4o9aRZdZyzG9hiNMWUliSZ7+ul/0q233qrTp08rDEOFYTh3j5fQ3W3+y1fLGWM0Go2kohdTvRWzv6+qpWm668BepJeCxdXD1j4zbWJL01iSFMex0uIzgbbXNFs2zsYlsKVY7JW7+rvrpuIksT9nlOxpBK8IWxWfBdh91LRm74jiOJbv+wqCvNAplofQnVt+kKqht0m2d2VPJqyeVxSnzHuUzfyfJTZfbfhWgxjLQeguQbUnUO85uG7154X2daye7TnaP+v7rikt58kYKU0zZRk93WUidNfU7hMIq3S49sXZ0PU8v/gfOYdl2Q8HQhcAHCJ0AcAhQhcAHCJ0AcAhQhcAHCJ0AcAhQhcAHCJ0AcAhQnfF7Nd12+yg1/+g5w/MgtBdEWPMrlH6jTFKkqT8ed2bHdVKxVCZdjwC+9q8qvO3813nbVrdbgxudDgQuiuUZZnCMJSKsLBfFa2fWOvYvGLwlziOFYZhue6Lfl32XF+5tUMTrltL07QctN6uZ33d0TyE7op4xehNSZKUv1eDZ92bKXpktiyMitBYFs/zyjBP03TP+69DC4JAWWWA+kXvEuDG8o5yzMwUA1urMn5pU8dZXXarj7RV3SaLmEwmUqXH7FXCdx2bPWbscbTo9sPBo1zPHJIkUb8/0MmT9+maa64pD3Rvxls7+wwuSRKFYagXXnhBP/vZz9Tr9SWt/25JkkQXX3yxrr32WoVhqCRJ1Ol06pPNJEkSPf7443r55Zd1wQUXaDQaKQhCGbNevcAsy8rQHY1GOnr0qC655JJdj6wW8eSTT+r48ePa2dkpLlrzH4+U69mN0J3DMkNXlccJDzzwgO6666vqdrszz+uwyTJpPB7rIx/5iE6ePKnBYFBefBYRxxPdfPMt+vu//9/a2rqg2N/rV27GGFMMvehpNBrq9tu/pBtvvKk+2dwI3YPD44UVsj0Ve/BFUaRut6uNjb76/fVug0Ffg8FAQRCUvdtlPdMNw0BbW1uKokD9fk+9Xm/P+x/2trExUK/XVbfbUafTUUvz61BazlGOpckDeO+zu3Vuy+6FeuXz3PV9Pn6uYwSHA6ELAA4RugDgEKELAA4RugDgEKELAA4RugDgEKELAA4RugDgEKELAA4RugDgEKELAA4RugDgEKELAA61JnR9P5DvB8oyozhOJHkyRnM3KR+WUcWoVk0pCpimaTHWal6mJgjyZawv/6wtTVOFYVjW57JtHfm+XxZ7PFtfbe82maWpGAPXjqHclOPlfLyiHJAparHV12fWVh0JzRbRbKvWhG6aZkqSVL4fKghCeV4gKR8ib55miooPVU0IInshsJUFxuOJ0jTbs/yzNK8Y97daraANQwnm+zNTlpk922SWlgdPXprJHjdNHY7RhmEQBJpOp2X41tdptiZNp9NdQdvEdXelNaE7mUwUx7GMyRTHsYbDHcVxrOl0OnOL47hsqlTyrfZkVsVWxbA112yPrb4O87SdnZ2yrLnW9MSxvTB78cp7efNvvziONZlMtL29rel0KlNUQFbDt58xRqPRqNzf9fXab5tMJmVnpHq+LGvA+sOoNeV6nnjiCd17770aj8fyi6KImrOCapqm6vV6OnHihK666qo989jvAWXD2nr44Yd1zz1/qcGgX/YQZmXnmWVZUYVioyiBs79lOpd8/fL5vf766xqNRur1euWjjHkYI43HEx09elT33XefoijaFXbziuOJPve5z+nUqVNzVaSw+9JesIwx2tzc0gUXXLhnP+9XfmeQaTrNy80bY/TGG2+Udw7zstt+OBzqtttu0x/90Y31SWZm5/nzn/9cX/va1zQcDuVXCl/Owx6Lx44dK8v12ON0kfU/rFoTumfOnNFvfvMbhWGoNE2VJIl6vV59sn2xm+xtb3ubBoNB+dqst90HEbqe5ymOY43HYx05ckRf/OIX9bu/e0lxizyfvKhjvn7f/e539cgj/0ued/bCNY+mhq6Ki6pfPE6ZTCb6wz/8j/qzP/svc4duXgI+k+f58v1Q//qvL+ree+/Vr3/964UKcR5k6O7s7OjVV18tA3eW4/pcPM/TW9/6VvX7fRljFjp2DrtWhG493JapeoLOenDWl2sZoZuVFYZTXXrpEX3729/WRRe9vT7Z3O699+t68MEH1el0FIbznzhNDl3bAzXGaDwe65Of/E86duxz9cnm9vrrr+mWW27R888/N/eFXwccurYTsWz2mLfvM8v5si6Wv1Ub6CB3bBAE8ooPGw7yffbL9qbyD288jcfT+iQLSdNMxnjy/fkDt8mqF0KveEyTpml9sjI09qs6vf1wswnHS51X3PIfROCqci7a92mjg9myAIBzInQBwCFCFwAcInQBwCFCFwAcInQBwCFCFwAcInQBwCFCFwAcInQBwCFCFwAcInQBwCFCFwAcInQxh3aODgUsA6G7hnzfkzGZjMm0rNHzzg7gbZRlydLm2zTVsV7Pjvlam2jG4UJNA2rnoTkI3TWSj/+aSjLyvDwsfD8Ph6yo/TVPywdFz8flzedrJK1nkNgB6XWOQebr22W/zY7Ha2uEhWEovyhSifYhdNeIMaaswSVJvV6vLItiy67M0zzPU6eTVzjodDrl+/gHNND1qlUH2M4vOvnr9e2y32a3VRRFu+YzS28Z66MV5Xqaqt6TWla5HjvPzc1NXXfdder3B3PPzxijIPCVJImCINA//uP/1QsvvLBwjaumluvJ7xbybWh7qe9+93/Q7//++/dUkNjvfO162fkOh0M98cTj+rd/++1C29Geusss14ODR+iu0EGErn0maYzRdJo/EojjRJ63v4Coy+eXKcsShWGkMAwVhuHCvbSmhq5lTwvf9xXHiUaj8Z51rv9+PnY/h2GoOI7V6XQURVHxmGZ+hO7hNPvRiEbzK88Ku92uoijSYDCYu/X7ffV6PW1tXaDBYFCUc99/4BxGdt3sBczzPG1sbOzZNvttm5ub6vd7iqJQW1tbxSOg+SoL4/AjdNeMvQW2zwyDIJDve/I8M3cLgnxe9vbY/ryu6ncgQeDL97Wn1bfT+ZqUFftAMiZVEHgKAk69tmLPr6HqI4ZlPT2qB9E693QPit1my9wvOHwIXQBwiNAFAIcIXQBwiNAFAIcIXQBwiNAFAIcIXQBwiNAFAIcIXQBwiNAFAIcIXQBwiNAFAIcIXQBwiNBtkLaN3GWHiTyo9bYDeR3U/FfNbjtGLDtcqByxItWhFz3Pk+/7euCBB3TnnXdqc3OzPvnaMcZoPB7rhhtu0MmTJ9Xv95UkSTlI+rym06luvfVWPfroo+p0OuWg7usYvHngZtre3tGdd96pj3/842u7ruuE0F0hU5TU6XQ68jxPP/rRj/Tggw+WZWbWXRzHuvrqq/WpT31K3W53Kb3e8Xis+++/X08//XRZFmcymSw836bxPE9pmsrzPCVJohtvvEk33PAHFLw8BAjdFcmyTEmSlNV1bbnuOI53VfRdZ9PpVJ7nqd/vS9JCRRqtJEmUJIl8/2wxzSAI9hSVPOxssHqeV27HbrdL6B4ChO4KVSsIVB8ztI0t/VMNknkto7jlYWUvMotsPxw8QneFbA+3WkyyLSdM9dmj/dkYs3Bg2gtZlmUKw3BXSfo2aNO6HlaLHeFYiFcUjrTadGvoLeH57bnY4K5+IHcQ79M0B7U9sXz0dAHAIXq6AOAQoQsADhG6AOAQoQsADhG6AOAQoQsADhG6AOAQoQsADhG6AOAQoQsADhG6AOAQoQsADhG6AOAQoQsADjG044oYY5SmqYIgKAfdzl/P/1x3npdX603TfLBxO3i5MWahsj1ZliqOp/L9QEmSKIqimUofVaf1PE9ZlioIQgVBPj5vfeB1YFaE7goZYxTHsSQpiiI98sgj+tu/fVidTlSfdA15SpJUV155pT7zmc+UxTkXrR4xmYz13e9+R//8z/+iwWCwq+7cftgwtZUntre39dGPflSf/OR/Pud0wKwI3RWpbnYbNA899JDuuOOENjc3JK37Ce1pOBzp+uuv17e+9a2yR7pokMXxVH/+5/9VP/7xj3XhhRdqPB6XxT/3w76/LQc/HI70x398k/7iL/7brumWsaxop/m7FFiI7dWpKNMjSWEYqt8fKIo66nTWu0VRpH6/r16vpyRJaltnfkmSaGNjQxsbG8X27CuKoj3vf74WRZG63W75c6/XVbfbrb8NMDdCd8WqpcHz57pGbehA5c9086Kc9hnuMnqOYZiXW59MJntqpe2H7cHaZcqyVFm2v14ysB+E7orYXm4QBOWHaJLkeb6kvMjgejdfnucrjmN5Ra+/uh0W1e/3lWWZJpNJWZZ8P82ydx9ZllcXBpaF0F2R6om++4MjI9/fGwbr1urO9dq8TFGG3Riz61nxfprv+8qybNe/WeSDPaCOowkAHCJ0AcAhQhcAHCJ0AcAhQhcAHCJ0AcAhQhcAHCJ0AcAhQhcAHCJ014z9Zteyv1ZrVb/t1UTnGv1r1u1Q/YZa/nt9iuV+gw7tQuiuKRuMSZIoTdNdYblI831/1yA1TZNfC/JlVTG2hVeM7bCfdnY+1dfPzr+q/m9dt+oyZFlW7mc0G6G7ZpIkUZZlCoJAYRgqiiL5vr/nhJ21WVmWlSd4E+UD6ZwN2fy1/Yfu+VoTmdr4ENXeOZqL0F0z9qSzwZim6cy31+diB4FR5fa7mcyu4LXbYF5vFrjVxxCraFVNv0DgLEJ3zdjbaRs2o9FIk8lE4/F47jYajTQajbSzs6MkycsLLSPID0KWpdre3tZoNNJ0OtVoNNJwONyzTudr+boOyzYcDhu7rtXg9YoxgOthjOahXM8K2dtD6+GHH9Y99/ylBoO+5i3XY3s7aZrqwgsv1Ic+9CFtbV2wUMHLvGflK00TPfXUP+nFF38pVcacnYcx0ng80dGjR3XfffcpiiJlWT6o+SKSJNZDDz2kl156UZ1OXvEhy9J9h5E9G+xpkSSx3v72d+h3fuedyrKsMp8mnDZnH5tcffXVuvTSS/e9nlgdQneFDip0JWkymejyyy/Xd77zHb3lLW+rTza3kydP6gc/+IE2Ngby/fmWUQcYuvVtugx/93f/U1/84hc0GGwo/5DOXnBWe+qkab6+k8lEd9xxhz7xiU/UJ0EDLXaEo9GyLNPOzk795bnYMLeVHtrArrMxUq/XV7/fV7fbK/7sqtfrr6z1+wNtbm5qc3NTW1tbiqI2VJBeD4Qu1soyLgh7b/7y3rPtRTehzXsnhNUjdFvCPvubtx129fV5s1b9N5ZX+29ZTWg4nAjdlqifsLO2w6IeoLbV1+fNmmV/9operp2//e9z9v8sr6It8sEoVovQXTtesVurbXHVALIVi5uoHqD1IJ1FNWh3r3/e7LfzVtHyC0H+vymyJXwACXfYUwDgEKELAA4RugDgEKELAA4RugDgEKELAA4RugDgEKELAA4RugDgUGtCt/q9+vxrlMsZT8B+HdT+vKz5ziv/tpQkmYWGXqyqr5MpaqU1nd0vs6j+mzf7Jtub/V2V/caY/daYPfbq27RJDmLZ7DZAi0L3XDvcHvzzNnsCNSl0fT9vWZZKyuR5Z7/KOm/bKx8kvYmyLNNkMtkVbtWf99NsUFa/+ptle4s+1v/duVr1ve02a3KFh6wo82T/tOtcX69ZWtW5XmubVoSuKU4kU1THVaW3u0izwjAsg3fVPcA4TpRlRkEQaDKZlgOj1Jd91mYDw/d9dTqd4vXamzdAdWwEnedi+2bs/rPHh8pe7XwhaUy+L1QUDQ3DUHEcK0mScv5N4hVlf+xyV8N33mbXtXoRa7PVJoQjplI6PAxD+UUJ8fogIvM0O//qib5qWXEr2+121el0pCJMFmk2ODzP02QykeepeIzRPJ1OpwwPu5+rYfzvNRUXUvuzMUbT6bRscRzv+v3NWhzHmkwmmk6nklTWm7PL1TTVi6uKXvmi50oYhnt696aBFxxXWlOu5/Tp03rjjTd29Trsz7MyRvJ9TxdddJEGg0EZcnZT7jd8q1d/Lalcj188NxwOh7r88st1yy0367LL3q0kWexxgF+chN/73vf0wx/+UP1+X9L8z8bNAZbree211zSZTItn2p7SNJl7vp7n6dSp/6O/+Zv/UdZcs+G833XPL1C+0jRVEARK01Svvfaa4jiee7kkKcvyysej0Ui33367Pvaxj9UnmVmS5NsqjmO9+OKL6vV6e47TeSRJone84x3a2NhQlmVzn3vroDWh+5Of/ETf/OY3NR6PFUVRcXDNdyAlSarBYKDbbrtNV1999a5bWFO5nfz31A/mZYSuff/pdKp+v6+trS2FYbTvgDi3PGB839fp06e1vb1dPGLY+5xzvw4qdOM41t13363HH39cW1tbu4JuP+zF07Y0TXXDDX+gm266SWl69jZ5ttD1lGVGcTxVr9fXyy//Snfffbdefvnl8k5kHgcRummaF/F85plndMcdd2g6nRb7ZH/rWmdMfuc1GAx07NgxffCDH9R0OlUURQsH+WHVmtB97LF/0Oc//3lNp1OFYVj/65nEcaLBYKC/+qtv6v3vf3958s16EB1U6FZvi+M43vM+s8oDKO+xRVFUXlQWOXQOLnQnuvnmW/STn/yDut28ZxoUzyhnZYw0HO7oT/7kU/rCF47X/3pur776qj772c/ql798oVzGeRxE6Fo//elPdezYMW1vbxeP5OpT7F8cJ+r1+vr617+u6667bu7zZV0ssCkPF9/3FUVR+Zxzkdbt5n8uGhAHoXoge55XLO9i65wXYeyq2+3u6gk2VRSF6vV66nbzZbbrsJ+2e73zP88VDrOuf3V6eyFssuqxU98uszY7jyaeL6vAVgAAhwhdAHCI0AUAhwhdAHCI0AUAhwhdAHCI0AUAhwhdAHCI0AUAhwhdAHCI0AUAhwhdAHCI0AUAhwjdFauPNtXwwacODbsdZxn39qDVl6MhiwXHCN0VsoFgB0HPf5eM8WWMt9ZNOlsep1oiph5Ms8o3pa8gCIvxZgOlqdnz/udrnhdI8hSGnV2/LyrLsrI+nx0oPB8cfpGWz9tWC8HhQOiuUD1gbBVWWxRxnZtdTxWDjNv1X5TddlmWKY4TpWlaVs7Yb0vTPCDt8piFLwR5ZeEoinb9Xn/fWZuKMjg2zHE4ELor5HnergGt0zRVmqYaDodlAcN1bcPhUMPhsCzcaLfHokxRffbMmTNlra/t7TN73v98bTweazqdajwelwUlbVHJedkevQ3HMAw1nU7LbVBfhv204XCoyWSi0WhUXqxxOLSmXM+pU4/p+PHjCxWktJIkUb8/0MmT9+maa64pQ3PW0Kj2VoIg0PPPP6+nnnqq7BG1wVve8hZ94AMf2FUAcZEKA6PRSE888YR++9vflrXi/KIq7azs/rnsssv0vve9T6rsY7us+2HnkxUFGXd2dvToo49qZ2dnodJRQRCUPd1rr71W73rXu2SMWWie1pNPPqnjx4+Xy+h588dEkqTq9fq66667dPTo0bnPl3VB6M5hWaGbJEnZC1LxbK6t7K38oqEbx/GBXLTSNJVflHLXHKFrp/eKxwr7/bezsI8tljFvQvfgzH90Y2FBEJQhs4wPkQ4rU1QarobavOqBu4xtapevumyzLGf9QmJDeBnsfKqhjmYjdFeofjK29YSxYXEQobGM+S1ruew86gG+CDufZS0jDh6hCwAOEboA4BChCwAOEboA4BChCwAOEboA4BChCwAOEboA4BChCwAOEboA4BChCwAOEboA4BChCwAOEbpLwehOAPaH0J2T56kc2DlJJvI8KcsWr/G1DFmW7ao3tqyxWzGf6vi59uem7pM0zUsK+b5X/Jw15rheF4TuAmwFiijqSvLk+4tVpFgW3/fLZTPGKI7j+iRwyI51m6bpnmohTRMEeakf3/fk+/ly+n4zl/WwolzPHNI0Vbfb1ac//Wn93u9dpTieyhijNE0VRZ2yNPYq2F5UXlKor6uuukq9Xq+xJ3kb2H1i98FkMtHTTz+tOI4XKk10MPKD95ln/kXf//73ywv2IstJuZ7dCN05maKESxRF5TzzW/r5iiAui+/7StNU4/FYV155pU6cOKFLL720PhlW6KWXXtKJEyf0/PPPq9Pp1P96xYxsFp4+fVqDwaCsvTYvQne31aXDIWeD9cyZM4rjuCzdPZmMNR6vru3s7JRlzc+cObOnZhjcy7JMxpiyTHoURdrZ2dFwONyz/1bb8pLzOzs7mkwm6vf7ZXn3tgbkQSB0F5A/TogURZE8z1MYhoqiUGEYrKwFQVAsR75MnCzNUL+hDMPVHifnbvldWl79N69abIqS7vXlx/wI3TnZxwu+7yvLstojBbOy5nn5xcA+Q7S9K6yOLURpj5Esy4reo/bsvyY0u7ye5ykIAgJ3yQhdAHCI0AUAhwhdAHCI0AUAhwhdAHCI0AUAhwhdAHCI0AUAhwhdAHCI0AUAhwhdAHCI0AUAhwhdAHCohaHbjhGTGBkKaKbWhG6aZkqSVMZ4StNMcZwojhMlyfq1NE0Z1rFhPM9TkuRFHyUpSdb3+Ku2OE7KQqkcj7nWlOt57LHHdOLECY3HY0lSp9NVluXhtE5MUR8tyzJddtlluueee3TxxRfXJ4NDtjKzHRD8V7/6lb70pS81tFzPctmLje/7uvPOO/XhD3+4HBx9lWWtVqkVoZtlmba3t/Xcc89JRRXfMAwVx/Haha6K9Z1OpxoMBrriiivU6XTWcj0PC9vDs9UYxuOxnn32WWVZtpR6fU1ne7lXXHGFNjY2ytBtaymp1oRuW0vX2BO+rb2KprBB09bjUMU2mE6niqJIxphWXHDOpTWhq8qHS2cr965fRdJqyNpSQm0+0ZuiekttiiKVbdkn9mJTPTbttmjLNqhqReiq8lxNxU7Pirpm67bT7XoGQVCuoz3osRr1U8zzPKVpupbH37nYC071wmPXuw3rX9ea0K2uZlt2NGHbXOyb9mpN6AJAE/DpCgA4ROgCgEOELgA4ROgCgEOELgA4ROgCgEOELgA4ROgCgEOELgA4ROgCgEOELgA4ROgCgEOELgA4ROgCgEOELgA4ROgCgEOELgA4ROgCgEOELgA4ROgCgEOELgA4ROgCgEOELgA4ROgCgEOELgA4ROgCgEOELgA4ROgCgEOELgA4ROgCgEOELgA4ROgCgEOELgA4ROgCgEOELgA4ROgCgEOELgA4ROgCgEOELgA4ROgCgEOELgA4ROgCgEOELgA4ROgCgEOELgA4ROgCgEOELgA4ROgCgEOELgA4ROgCgEOELgA49P8BP8HmfrwXB6cAAAAASUVORK5CYII=;" vertex="1" parent="1">
          <mxGeometry x="579.86" y="338" width="50.14" height="50" as="geometry" />
        </mxCell>
        <mxCell id="enXNgLlltsmvFPIuJAf--29" value="" style="endArrow=classic;html=1;rounded=0;exitX=0.5;exitY=0;exitDx=0;exitDy=0;dashed=1;" edge="1" parent="1">
          <mxGeometry width="50" height="50" relative="1" as="geometry">
            <mxPoint x="606" y="340" as="sourcePoint" />
            <mxPoint x="490" y="150" as="targetPoint" />
          </mxGeometry>
        </mxCell>
        <mxCell id="enXNgLlltsmvFPIuJAf--30" value="Document QR validation" style="text;html=1;whiteSpace=wrap;strokeColor=none;fillColor=none;align=center;verticalAlign=middle;rounded=0;" vertex="1" parent="1">
          <mxGeometry x="560" y="240" width="60" height="60" as="geometry" />
        </mxCell>
        <mxCell id="enXNgLlltsmvFPIuJAf--31" value="Container Base Application" style="text;html=1;whiteSpace=wrap;strokeColor=none;fillColor=none;align=center;verticalAlign=middle;rounded=0;" vertex="1" parent="1">
          <mxGeometry x="280.31" y="40" width="60" height="50" as="geometry" />
        </mxCell>
        <mxCell id="enXNgLlltsmvFPIuJAf--32" value="" style="sketch=0;pointerEvents=1;shadow=0;dashed=0;html=1;strokeColor=none;fillColor=#434445;aspect=fixed;labelPosition=center;verticalLabelPosition=bottom;verticalAlign=top;align=center;outlineConnect=0;shape=mxgraph.vvd.nsx_dashboard;" vertex="1" parent="1">
          <mxGeometry x="610" y="50" width="96.77" height="90" as="geometry" />
        </mxCell>
        <mxCell id="enXNgLlltsmvFPIuJAf--34" value="" style="endArrow=classic;html=1;rounded=0;exitX=0.978;exitY=0.197;exitDx=0;exitDy=0;dashed=1;exitPerimeter=0;" edge="1" parent="1" source="enXNgLlltsmvFPIuJAf--1">
          <mxGeometry width="50" height="50" relative="1" as="geometry">
            <mxPoint x="706" y="360" as="sourcePoint" />
            <mxPoint x="600" y="80" as="targetPoint" />
          </mxGeometry>
        </mxCell>
        <mxCell id="enXNgLlltsmvFPIuJAf--35" value="Web App" style="text;html=1;whiteSpace=wrap;strokeColor=none;fillColor=none;align=center;verticalAlign=middle;rounded=0;" vertex="1" parent="1">
          <mxGeometry x="519.86" y="95" width="60" height="30" as="geometry" />
        </mxCell>
        <mxCell id="enXNgLlltsmvFPIuJAf--36" value="" style="outlineConnect=0;dashed=0;verticalLabelPosition=bottom;verticalAlign=top;align=center;html=1;shape=mxgraph.aws3.user;fillColor=#D2D3D3;gradientColor=none;" vertex="1" parent="1">
          <mxGeometry x="720" y="77" width="45" height="63" as="geometry" />
        </mxCell>
      </root>
    </mxGraphModel>
  </diagram>
</mxfile>
